<?xml version="1.0" standalone="no"?>
<!DOCTYPE svg PUBLIC "-//W3C//DTD SVG 1.1//EN" "http://www.w3.org/Graphics/SVG/1.1/DTD/svg11.dtd" >
<svg xmlns="http://www.w3.org/2000/svg" xmlns:xlink="http://www.w3.org/1999/xlink" version="1.1">
<metadata>
Created by FontForge 20161003 at Sat Feb 17 17:43:46 2018
 By www-data
Copyright (c) 2015 by Dana Nof &#38; Avraham Cornfeld. All rights reserved.
</metadata>
<defs>
<font id="DanaYadAlefAlefAlefNormal" horiz-adv-x="0" >
  <font-face 
    font-family="DanaYadAlefAlefAlefNormal"
    font-weight="400"
    font-stretch="condensed"
    units-per-em="1000"
    panose-1="0 0 5 6 0 0 0 0 0 0"
    ascent="800"
    descent="-200"
    bbox="-216 -268 683 922"
    underline-thickness="22"
    underline-position="-132"
    unicode-range="U+0020-2212"
  />
<missing-glyph horiz-adv-x="500" 
d="M410 -250h-317v1000h317v-1000zM168 683v-33h65v-37h-66v-33h166v33h-66v37h66v33h-165zM167 554v-104h166v34h-66v70h-100zM233 484h-33v36h33v-36zM167 423v-33h66v-37h-66v-33h100v70h66v33h-166zM300 363v-66h-133v-34h166v100h-33zM233 241v-56h34v23h33v-47h-100
v80h-33v-113h166v113h-100zM167 68v-113h166v113h-166zM300 -12h-100v47h100v-47zM167 -68v-33h70l-70 -47v-33h166v33h-102l70 47h32v33h-166z" />
    <glyph glyph-name=".notdef" horiz-adv-x="500" 
d="M410 -250h-317v1000h317v-1000zM168 683v-33h65v-37h-66v-33h166v33h-66v37h66v33h-165zM167 554v-104h166v34h-66v70h-100zM233 484h-33v36h33v-36zM167 423v-33h66v-37h-66v-33h100v70h66v33h-166zM300 363v-66h-133v-34h166v100h-33zM233 241v-56h34v23h33v-47h-100
v80h-33v-113h166v113h-100zM167 68v-113h166v113h-166zM300 -12h-100v47h100v-47zM167 -68v-33h70l-70 -47v-33h166v33h-102l70 47h32v33h-166z" />
    <glyph glyph-name=".null" 
 />
    <glyph glyph-name="nonmarkingreturn" horiz-adv-x="333" 
 />
    <glyph glyph-name="space" unicode=" " horiz-adv-x="310" 
 />
    <glyph glyph-name="exclam" unicode="!" horiz-adv-x="202" 
d="M117 188l-3 20q-5 23 -6 44l-3 83q-1 40 -5 125q-9 154 -20 264q-6 63 -15 89.5t-27 26.5q-6 0 -14 -3q-1 -2 9 -47q10 -37 11 -49l8 -58q16 -111 20 -170q4 -44 6.5 -98t3.5 -75l6 -115q0 -3 0.5 -13t5 -17t13.5 -10zM134.5 49q-7.5 5 -15.5 5t-14 -6q-19 -19 -19 -34
q0 -17 21 -35q2 -2 6 -2q9 0 26 12q19 11 19 20q0 5 -4.5 13t-7.5 14q-4 8 -11.5 13z" />
    <glyph glyph-name="quotedbl" unicode="&#x22;" horiz-adv-x="217" 
d="M218 566q0 51 -21 99q-6 14 -16 14q-12 0 -22 -17q28 -56 28 -103q0 -36 -15.5 -70.5t-48.5 -76.5q-5 -8 -5 -15q0 -5 4 -15q96 77 96 184zM26 400q3 -2 5 -2t10 5q29 21 46 65.5t17 91.5q0 52 -22 83q-9 13 -23.5 22.5t-26.5 9.5q-10 0 -15 -9q53 -63 53 -132
q0 -55 -36 -100q-5 -7 -8.5 -16t-5.5 -15q3 -1 6 -3z" />
    <glyph glyph-name="numbersign" unicode="#" horiz-adv-x="464" 
d="M327 293q-13 -58 -20 -97h9q24 -1 54 -1q42 0 79 -1q0 -13 -5 -18.5t-27 -5.5l-63 5l-54 -3q-2 -8 -4 -24l-7 -47q-5 -34 -9 -53.5t-12 -40.5q-9 1 -12.5 4t-3.5 12q0 10 3 29q4 21 10 65l7 44l2 10l-59 -5l-48 -3l-5 -28q-2 -12 -5.5 -36.5t-5.5 -40.5l-6 -50
q-9 -6 -16 -6q-11 0 -11 19q0 9 3 22q3 17 10 61l9 57q-100 -7 -117 -7q-5 18 11 23t54 7l57 4l10 44l21 97v1l-172 -1q3 30 27 30q100 -4 151 -5q4 14 5 22l5 47q4 35 8 55t14 40q9 -2 13 -6t4 -12q0 -12 -5 -26l-6 -43l-11 -67q-2 -8 -2 -11l106 -4l7 40q10 55 15 121
q6 6 13 6q6 0 10 -7.5t4 -22.5q0 -28 -12 -82q-2 -8 -4.5 -20t-4.5 -28l-1 -7l110 -3q5 -8 5 -12q0 -11 -27 -11q-9 0 -43 2l-50 2q-7 -27 -8 -34zM280 197q12 53 28 131l-106 2q-4 -15 -5 -25q-4 -19 -10.5 -47.5t-13.5 -66.5q70 6 107 6z" />
    <glyph glyph-name="dollar" unicode="$" horiz-adv-x="423" 
d="M421 124q0 -47 -56 -79t-142 -45l10 -80q-5 -4 -10 -4q-11 0 -15.5 20.5t-8.5 62.5l-41 -4q1 -21 1 -56v-40q-18 -2 -22.5 20t-3.5 83q-45 4 -78 27.5t-39 65.5q-2 18 -2 27q0 36 26 45q2 1 6 1q3 0 4.5 -2.5t0.5 -4.5q-22 -15 -22 -39t19 -48q17 -20 36.5 -31t49.5 -16
q3 46 5.5 106t3.5 108q-25 12 -45 28t-27 21q-35 27 -35 69q0 23 12.5 45.5t36.5 40.5q16 11 39.5 24t31.5 15q-1 3 -1 19q0 28 4 96q1 9 7 17t19 11q0 -13 -1.5 -43.5t-3.5 -53.5q-1 -9 -2.5 -22t-0.5 -19q9 3 22 4q10 0 25 3q0 9 2 25q2 26 2 40v14q0 18 3 27q2 8 9 16.5
t15 8.5q1 -2 1 -19q0 -39 -5 -87q0 -5 -0.5 -13t-2.5 -14q68 -4 95 -38q9 -10 9 -27q0 -10 -4 -16.5t-12 -6.5l-8 2q4 9 4 18q0 14 -13 23q-16 11 -30.5 16.5t-40.5 7.5l-6 -71l-4 -47l-3 -36q-2 -40 -7 -80q11 -4 29 -12q38 -15 59.5 -24.5t68.5 -31.5q36 -18 36 -47z
M217 399q2 24 5 72q-23 0 -46 -7l-3 -113q-2 -87 -3 -91q8 -2 16.5 -5.5t18.5 -5.5q13 159 12 150zM153 457q-44 -17 -69 -42.5t-24 -52.5q0 -24 12 -40.5t27 -26t48 -27.5zM206 200l-1 20q-28 8 -36 12l-3 -50q-9 -151 -9 -160q5 -1 14 -1q13 0 30 4q0 28 1 42q0 83 4 126
v7zM396 117q0 17 -21 29q-40 23 -118 58l-26 12q-6 -158 -6 -167l-1 -23q9 3 26 5q35 6 64 15t54 29q28 21 28 42zM233 -80z" />
    <glyph glyph-name="percent" unicode="%" horiz-adv-x="318" 
d="M66 53l17 36q60 126 92 189q13 26 55 103q23 42 41 77.5t18 44.5l-8 2q-9 0 -13.5 -6t-13.5 -21l-39 -73q-38 -67 -78 -146q-34 -68 -73 -161l-30 -67q-3 -6 -3 -12q0 -12 14 -16q4 14 21 50zM89 334q3 6 3 10q0 8 -6 14.5t-20 15.5q-2 2 -5 2q-7 0 -15 -6.5t-8 -12.5
q0 -17 8.5 -26.5t23.5 -9.5q12 0 19 13zM274 172q0 11 -21 23q-5 2 -17.5 -4t-14.5 -13q-3 -7 -3 -14q0 -12 6.5 -20t15.5 -8q8 0 14 6q20 18 20 30z" />
    <glyph glyph-name="quotesingle" unicode="'" horiz-adv-x="96" 
d="M52.5 433.5q16.5 26.5 27.5 68.5t11 79q0 34 -11 54q-12 19 -51 45q-3 3 -10 3q-10 0 -19 -6q-5 -3 1 -9.5t22 -21.5q23 -21 27 -28q13 -21 13 -48q0 -15 -4 -33t-9 -35l-29 -91q15 -4 31.5 22.5z" />
    <glyph glyph-name="parenleft" unicode="(" horiz-adv-x="229" 
d="M223 623q-6 0 -14 -2q-74 -15 -119 -89q-44 -73 -55 -152q-6 -37 -6 -74q0 -86 33 -166q41 -93 81.5 -156t69.5 -61q-4 10 -12 19.5t-11 14.5q-44 74 -64 112q-53 97 -63 181q-4 29 -4 66q0 74 24 136q21 54 68 104q9 10 22 16.5t33 15.5q19 8 28 13.5t9 13.5q-8 8 -20 8
z" />
    <glyph glyph-name="parenright" unicode=")" horiz-adv-x="179" 
d="M26 -49q7 0 15 7t13 17q53 104 72.5 177t19.5 138q0 34 -3 67q-13 139 -107 255q-7 9 -15 9q-7 0 -18 -9q4 -10 12 -21.5t12 -17.5q32 -47 51 -89q39 -88 39 -175q0 -75 -24.5 -153.5t-75.5 -200.5q4 -4 9 -4z" />
    <glyph glyph-name="asterisk" unicode="*" horiz-adv-x="288" 
d="M70 545q-40 7 -50 7q-22 0 -22 -16q0 -6 3 -12q7 -2 25 -2q17 0 27 1l30 1q30 0 45 -7q0 -6 -7 -18.5t-15 -25.5q-23 -37 -27 -53v-1q0 -4 4 -10l6 -9q7 10 29 50q21 43 37 55q9 -9 19 -44q7 -23 12.5 -35t14.5 -12q6 0 13 6q0 13 -3.5 22.5t-11.5 25.5q-13 23 -18 45
q16 0 26 -1l34 -1q34 0 47 7q0 12 -8.5 15.5t-21.5 5.5q-9 1 -23 1q-15 0 -28 -1.5t-20 -1.5t-11 1q2 6 16 49q14 40 14 53q0 11 -6 16t-21 5q-19 -63 -33 -101q-13 14 -42 45t-32 32q-14 7 -20 7q-9 0 -15 -7q10 -15 24.5 -28t17.5 -16q20 -18 30.5 -30t15.5 -26z" />
    <glyph glyph-name="plus" unicode="+" horiz-adv-x="336" 
d="M224.5 266.5q9.5 0.5 21.5 -0.5q18 -2 29 -2q8 0 12 1q2 0 8 0.5t10.5 2.5t6.5 7q3 8 -9.5 11.5t-24.5 5t-15 1.5q-10 2 -25 2q-11 0 -18 -1t-12 -1q-4 16 -8 56v7q0 16 -5 17t-11.5 -8.5t-7.5 -15.5t-1 -19l1 -37q-19 -4 -50 -4h-35q-22 0 -31 -1q-18 -2 -27.5 -8
t-9.5 -20q0 -3 8 -3l13 1q16 2 26 4q43 5 52 5l42 1q10 0 14 -2q1 -3 2.5 -19.5t4.5 -35.5q1 -5 1.5 -16t3.5 -18.5t9 -8.5q8 -1 10 8.5t1 31.5q-3 48 -3 58q8 0 17.5 0.5z" />
    <glyph glyph-name="comma" unicode="," horiz-adv-x="127" 
d="M-16 -113l9 3q15 4 33.5 29t28.5 50q23 59 23 116q0 30 -7 48q-2 5 -8 9t-13 3q-4 0 -4 -8l1 -11q1 -7 2 -17t1 -23q0 -31 -17 -84.5t-36 -79.5q-7 -10 -19 -30q4 -4 6 -5z" />
    <glyph glyph-name="hyphen" unicode="-" horiz-adv-x="351" 
d="M192 247q16 0 25 -1q9 0 28.5 -0.5t34.5 0.5q19 1 28.5 6.5t9.5 12.5q0 9 -9 9l-88 6l-34 2q-26 2 -60 -1t-42 -4l-29 -3q-10 0 -16.5 -6.5t-6.5 -13.5q0 -5 3.5 -8t10.5 -3q84 4 145 4z" />
    <glyph glyph-name="period" unicode="." horiz-adv-x="172" 
d="M78.5 -10.5q6.5 -2.5 11.5 -0.5q19 6 23 16q3 8 3 15q0 11 -6.5 19.5t-17.5 10.5q-8 2 -19 -4t-14 -14q-3 -6 -3 -12q0 -11 13 -24q3 -4 9.5 -6.5z" />
    <glyph glyph-name="slash" unicode="/" horiz-adv-x="366" 
d="M364 -97q0 14 -17 44l-24 51q-27 61 -48 102l-64 122q-77 147 -102 198q-15 30 -35 80q-17 43 -29.5 66.5t-31.5 41.5q-11 -14 -11 -28q0 -11 7 -30l86 -177q11 -23 26 -50q17 -32 20 -38q15 -26 26 -47.5t19 -37.5l27 -51l10 -18q20 -35 25 -48q13 -27 31 -72
q18 -42 31 -66.5t39 -60.5q15 7 15 19z" />
    <glyph glyph-name="zero" unicode="0" horiz-adv-x="588" 
d="M553 226q6 26 6 51q0 80 -66 124q0 29 -45.5 64t-108 60t-106.5 25q-15 0 -22 -2q-70 -17 -109.5 -49t-56 -81t-16.5 -122q1 -66 25.5 -122.5t72.5 -98.5q42 -37 79.5 -55t75.5 -18q55 0 123 38q123 67 148 186zM394 438q0 -3 3 -8q12 -13 29.5 -25.5t34.5 -22.5
q40 -24 59 -44.5t19 -56.5t-22 -86q-54 -121 -181 -160q-21 -6 -43 -6q-45 0 -94 27q-72 38 -108 103t-36 141q0 35 7 66q13 58 47 96.5t85 49.5q35 7 53 7q32 0 64.5 -14t94.5 -52q-12 -8 -12 -15z" />
    <glyph glyph-name="one" unicode="1" horiz-adv-x="281" 
d="M185 145l-1 -39q-1 -11 -1 -34q0 -49 13 -74q4 2 12.5 7.5t10.5 12.5t1 19q-10 79 -10 197q0 95 7.5 183t21.5 143q5 27 5 35q0 9 -5 13t-17 4q-50 -175 -115 -275q-25 -39 -52 -68t-61 -49q8 -15 19 -15q8 0 15.5 6t15.5 14.5t13 12.5q40 39 74.5 91.5t58.5 109.5
q-5 -155 -5 -294z" />
    <glyph glyph-name="two" unicode="2" horiz-adv-x="441" 
d="M206 27l32 -18q34 -21 66 -21q30 0 54.5 14t68.5 46q11 8 11 19q0 10 -11 21q-2 -3 -13.5 -16t-22.5 -21q-50 -35 -88 -35q-25 0 -50 13.5t-59 42.5q68 85 112 168.5t54 171.5q2 20 2 30q0 84 -56 147q-21 24 -51.5 38t-61.5 14q-42 0 -70 -27q-34 -31 -34 -75
q0 -40 27.5 -69.5t68.5 -29.5q19 0 39 7q23 8 19 28q-38 -12 -54 -12q-28 0 -56 29q-18 18 -18 46q0 31 22 55t52 23q82 -4 126 -81q26 -44 26 -98q0 -52 -27 -124q-21 -53 -69 -131l-18 -31q-12 -20 -36 -46l-17 -20q-27 24 -53 35.5t-58 17.5q-5 1 -16 1q-28 0 -33 -24
q-2 -14 -2 -21q0 -41 34 -68q23 -19 47 -19q18 0 38 11q9 5 22 13.5t21 13.5zM98 31q-12 0 -18 2q-15 4 -28.5 21.5t-13.5 33.5q0 10 6 16q5 5 18 5q9 0 13 -2q5 -2 22.5 -8.5t32.5 -15t28 -19.5q-26 -33 -60 -33z" />
    <glyph glyph-name="three" unicode="3" horiz-adv-x="397" 
d="M34 464q3 5 8 11q16 25 29 41.5t30 29.5q30 24 66 24q28 0 49.5 -17.5t28.5 -50.5q3 -12 3 -26q0 -41 -23.5 -86.5t-53.5 -68.5q-11 -8 -21 -20.5t-13 -15.5q7 -8 13 -8q5 0 13.5 4.5t15.5 7.5q6 3 15.5 8.5t16.5 7.5q15 4 32 4q41 0 72 -31q21 -20 32.5 -44.5
t11.5 -51.5t-12 -54q-44 -105 -140 -105q-68 0 -172 53q-5 3 -17 3q-16 0 -16 -9q5 -3 17 -8t19 -11q34 -29 74.5 -44.5t81.5 -15.5q50 0 93 23t68.5 68.5t25.5 109.5q0 43 -21 75.5t-60 53.5q-26 13 -50 13q-16 0 -37 -6q5 7 25.5 37.5t27.5 52.5t7 48q0 14 -1 22
q-2 38 -22.5 67t-50.5 36q-12 3 -24 3q-48 0 -92.5 -34t-64.5 -73q-3 -4 -3 -11q0 -13 13 -21q3 4 6 9z" />
    <glyph glyph-name="four" unicode="4" horiz-adv-x="391" 
d="M288 96q0 -73 9 -94q21 2 21 30v108v54q0 9 3.5 17.5t5.5 13.5q19 62 29 103t12 78q1 9 -5 17.5t-22 8.5q-11 -35 -28 -122q-7 -38 -11 -53q-4 -14 -9 -21t-16 -11q-49 -20 -111 -20q-19 0 -43 2t-34 3l-31 3q-11 1 -11 9q0 4 4 14q3 8 34 72q34 68 47 108q18 60 33 161
l6 34q3 14 3 27q0 33 -26 42q-5 -11 -5 -27q0 -9 2 -25q3 -15 3 -29q0 -8 -1 -12q-13 -104 -46.5 -197.5t-87.5 -169.5q-3 -5 -5 -12.5t-3 -11.5q75 -13 136 -13q81 0 148 22z" />
    <glyph glyph-name="five" unicode="5" horiz-adv-x="422" 
d="M389.5 121.5q-23.5 -46.5 -64 -78.5t-89.5 -37q-22 -2 -33 -2q-86 0 -139 57q-55 58 -55 125q0 21 17 33q16 -88 50 -138t102 -56l15 -1q45 0 87 21.5t70 60.5t35 89q1 6 1 18q0 38 -18.5 71t-53.5 51q-68 37 -141 37q-45 0 -87 -13q-16 -4 -20 -4q-11 0 -11 13q0 4 2 18
q4 34 4 52q0 46 -12 94l-8 -6q-3 -2 -8 -2.5t-8 -0.5q0 3 -0.5 8t1.5 9q11 20 30 30t41 11l53 3q17 1 40 2t53 1q90 0 139 -25q-2 -7 -5 -10t-11 -3q-7 0 -12 1q-18 1 -47 5q-9 1 -38.5 4t-54.5 3q-8 0 -20.5 -0.5t-28.5 0.5q-56 2 -92 -16v-1q4 -28 6 -49t3 -34
q1 -18 5 -54v-10q36 -2 53 -2q85 -5 90 -6q46 -5 85.5 -25t68.5 -55q15 -18 22 -43.5t7 -51.5q0 -47 -23.5 -93.5z" />
    <glyph glyph-name="six" unicode="6" horiz-adv-x="482" 
d="M282 94l-9 20q-17 32 -17 51q0 28 17 54.5t43.5 43.5t52.5 17q22 0 38 -13q23 -20 34.5 -44.5t11.5 -50.5q0 -33 -19 -62t-54 -45q-62 -28 -121 -39q-16 -4 -37 -4q-59 0 -109 34.5t-69 83.5q-18 46 -18 101q0 50 16 108q45 165 198 240q31 15 57.5 23t51.5 8
q38 0 71 -19q1 3 1 8q0 15 -14.5 24.5t-36.5 9.5l-12 -1q-160 -13 -272 -155q-81 -101 -81 -258q0 -22 1 -33q2 -44 26.5 -85.5t63.5 -70.5t83 -37q21 -4 48 -4q87 0 178 56q34 20 53 44t19 60q0 61 -40 113q-24 32 -64 32q-33 0 -66.5 -21t-55.5 -53.5t-22 -65.5
q0 -35 25 -60q5 -5 13 -10t13 -8z" />
    <glyph glyph-name="seven" unicode="7" horiz-adv-x="462" 
d="M244.5 1.5q8.5 10.5 9.5 23.5q3 21 7 73q4 57 9 95.5t15 62.5q27 6 73 9t87 3q3 8 3 14q0 7 -5 10.5t-17 3.5q-6 0 -74 -5q-42 -5 -60 -5q3 29 43 137.5t67 154.5q3 5 4 11.5t-1 9.5t-8 4t-12 0l-48 -7q-59 -11 -95 -11q-54 0 -99 5q-60 6 -133 6q-4 -28 35 -28l50 -3
q15 -1 54 -3t70 -2q75 0 141 11l-5 -15l-88 -258q-4 -11 -9 -14.5t-16 -4.5q-13 -1 -43 -1q-24 0 -70 2l-59 1q-19 0 -39 -2q1 -16 22 -21.5t67 -5.5q34 0 53 1l85 1q-36 -152 -35 -258q13 -5 21.5 5.5z" />
    <glyph glyph-name="eight" unicode="8" horiz-adv-x="375" 
d="M96 418q60 -49 82 -69q-2 -6 -8 -18q-32 -74 -57.5 -140.5t-41.5 -133.5q-2 -12 -2 -17q0 -22 13 -36.5t36 -16.5q28 -2 45 4q102 35 168 95q9 9 14.5 22t6.5 25q1 27 -19.5 72.5t-40.5 67.5l-42 46l-32 35q13 24 25 43q7 14 17.5 31.5t21.5 39.5q21 39 31.5 73t8.5 69
q-2 22 -16 39t-34 18q-46 4 -67 4q-55 0 -98.5 -16.5t-84.5 -57.5q-37 -38 -37 -61q0 -14 10.5 -27.5t38.5 -39.5zM165 399.5q-21 15.5 -31 23.5q-36 26 -61 47l-36 32q-23 20 -23 36q0 15 20 37q31 35 79 49t122 18q31 1 47.5 -11.5t16.5 -38.5q0 -14 -4 -27
q-9 -36 -23 -66t-44 -83l-26 -46q-16 14 -37 29.5zM234 298q24 -23 40.5 -44.5t26.5 -43.5q19 -50 19 -76q0 -18 -8.5 -30t-28.5 -25q-55 -35 -112 -58q-18 -10 -38 -10t-30 15q-6 11 -6 28q0 19 5 36q19 72 41.5 124t59.5 113q7 -6 31 -29z" />
    <glyph glyph-name="nine" unicode="9" horiz-adv-x="458" 
d="M394 289q0 -50 -4 -90t-11.5 -68t-27.5 -52q-25 -29 -64 -45t-83 -16q-42 0 -81.5 14.5t-68.5 42.5q-10 -9 -10 -18q0 -14 19 -26.5t43 -20.5q37 -14 83 -14q57 0 110 19t74 50q27 40 36 84.5t9 103.5q0 20 -2 60q-2 38 -2 57q0 51 11 88q1 3 1 9q0 18 -12 23
q-10 -22 -14 -40q-3 7 -10.5 24t-18.5 29q-26 28 -50.5 47.5t-53.5 31.5q-55 22 -91 22q-30 0 -58 -14q-50 -24 -76.5 -71.5t-26.5 -100.5q0 -57 30.5 -100t84.5 -49q24 -2 36 -2q68 0 130 26.5t92 70.5q6 -19 6 -75zM100 553q28 25 71 25q21 0 51 -7q51 -13 101 -54
q26 -22 40.5 -42.5t18.5 -47.5q1 -3 1 -9q0 -34 -35.5 -66.5t-73.5 -43.5q-63 -17 -110 -17q-126 0 -126 125q0 15 1 23q4 67 61 114z" />
    <glyph glyph-name="colon" unicode=":" horiz-adv-x="200" 
d="M115 388q-2 12 -7.5 17.5t-18.5 5.5q-17 0 -27 -8t-6 -22q12 -38 29 -38q14 0 34 25q-2 8 -4 20zM94 -4q10 -8 16 -6q10 2 23 11t12 14q-4 20 -15 30.5t-25 10.5q-11 0 -19.5 -8t-8.5 -21q0 -6 3 -15q4 -8 14 -16z" />
    <glyph glyph-name="semicolon" unicode=";" horiz-adv-x="179" 
d="M114 388q-2 12 -7.5 17.5t-18.5 5.5q-17 0 -27 -8t-6 -22q12 -38 29 -38q14 0 34 25q-2 8 -4 20zM27 -112q15 0 36 27t32 54q23 59 23 116q0 30 -7 48q-2 5 -8 9t-13 3q-3 0 -3 -12q0 -8 2 -26q2 -21 1 -28q-3 -34 -19.5 -83.5t-33.5 -73.5q-7 -10 -19 -30q4 -4 9 -4z
" />
    <glyph glyph-name="less" unicode="&#x3c;" horiz-adv-x="330" 
d="M77.5 280.5l17.5 7.5q3 1 42 17q72 29 110 47t50 33q-4 8 -11 8q-4 0 -8 -2q-59 -21 -124 -48l-125 -54q-6 -2 -10.5 -7t-5.5 -9v-1q0 -4 3.5 -9t7.5 -7l59 -35q90 -55 136 -81.5t54 -26.5q11 0 15 11q-25 21 -61.5 42.5t-119.5 66.5q-14 7 -28 18q-22 15 -28 18
q16 7 26.5 11.5z" />
    <glyph glyph-name="equal" unicode="=" horiz-adv-x="544" 
d="M35.5 313q6.5 -5 22.5 -5q10 0 17 1q7 0 12 1t9 2l22 3l108 4q142 6 212 8q19 1 47 -1q16 -2 23 -2q5 0 17 2q-1 11 -9.5 17t-19.5 6l-161 -6l-278 -8q-18 0 -28 -6q0 -11 6.5 -16zM495.5 178q-8.5 9 -23.5 10q-35 3 -124.5 6.5t-118.5 2.5q-33 -2 -57.5 -2.5t-40.5 -0.5
q-49 0 -73 -1q-21 0 -29 -7q4 -17 27 -17q19 0 33 1t24 2q28 3 56 3q61 0 175.5 -6.5t159.5 -12.5q0 13 -8.5 22z" />
    <glyph glyph-name="greater" unicode="&#x3e;" horiz-adv-x="350" 
d="M316 249q-53 17 -103 46.5t-104 71.5q-22 18 -51 34q-6 4 -9 4q-4 0 -11 -7q3 -19 28 -37.5t75 -48.5l32 -19q30 -19 75 -43q8 -5 15.5 -9.5t13.5 -7.5q-142 -78 -221 -122q-11 -7 -17 -13.5t-6 -18.5q26 1 71 24t145 80q17 10 88 50q-5 11 -21 16z" />
    <glyph glyph-name="question" unicode="?" horiz-adv-x="300" 
d="M63.5 724.5q37.5 23.5 81.5 23.5q32 0 61 -13.5t46 -38.5q10 -14 10 -31q0 -14 -6 -29q-18 -44 -42.5 -85t-61.5 -92q-59 -83 -80 -171q-6 -26 -6 -39q0 -27 16 -47q27 -31 71 -31q14 0 27 3q35 7 47 14t12 19q0 3 -2 13q-36 -20 -74 -20q-29 0 -48 13.5t-19 40.5
q0 4 2 16q17 102 96 202q63 81 91 164q6 18 6 34q0 31 -19.5 55t-48.5 36q-43 18 -83 18q-32 0 -58 -11q-35 -15 -72 -50q-8 -7 -13.5 -17.5t-5.5 -19.5q0 -17 20 -22q15 42 52.5 65.5zM108 15.5q6 -13.5 15 -14.5q13 -1 29.5 11t18.5 23q1 15 -9 26t-24 11
q-15 0 -24.5 -7.5t-10.5 -19.5q-1 -16 5 -29.5z" />
    <glyph glyph-name="bracketleft" unicode="[" horiz-adv-x="265" 
d="M199.5 -18.5q-28.5 1.5 -82.5 2.5q-3 0 -7.5 5.5t-5.5 9.5q-3 21 -5 65q-6 159 -11 235q-4 70 -14 212v3q0 10 4 13.5t15 4.5q52 3 115 11q6 1 13.5 4l12.5 5q-3 10 -8.5 13.5t-16.5 3.5l-28 -1l-39 -3q-12 -1 -30 -2t-41 -1q-21 0 -26.5 -3t-5.5 -16q0 -11 1 -19l9 -87
q10 -96 13 -144q10 -134 10 -201q0 -59 -6 -118q-1 -13 8 -22t23 -9l83 5q46 4 82 6q14 2 19 4t5 8q0 5 -1 9q-57 5 -85.5 6.5z" />
    <glyph glyph-name="backslash" unicode="\" horiz-adv-x="366" 
d="M2 605q0 -14 17 -44l24 -51q27 -61 48 -102l64 -122q77 -147 102 -198q15 -30 35 -80q17 -43 29.5 -66.5t31.5 -41.5q11 14 11 28q0 11 -7 30l-86 177q-11 23 -26 50q-17 32 -20 38q-15 26 -26 47.5t-19 37.5l-27 51l-10 18q-20 35 -25 48q-13 27 -31 72q-18 42 -31 66.5
t-39 60.5q-15 -7 -15 -19z" />
    <glyph glyph-name="bracketright" unicode="]" horiz-adv-x="255" 
d="M48 -85.5q11 2.5 18 3.5q9 1 20.5 1h16.5h74q21 1 30 8t9 23q0 8 -1 12q-8 80 -10 119l-18 353l-5 131q-1 16 -10.5 23.5t-23.5 5.5q-32 -4 -81 -4h-41q-25 0 -36 -1q-12 0 -21 -21q25 -12 54 -12q7 0 37 2q66 3 90 3l31 -603l-131 -6q-29 -1 -29 -18q0 -11 8 -23
q8 1 19 3.5z" />
    <glyph glyph-name="asciicircum" unicode="^" horiz-adv-x="398" 
d="M348.5 391.5q-2.5 5.5 -5.5 10.5q-8 18 -13 26l-23 39q-94 159 -109 184q-3 5 -10 9t-14 5q-3 1 -7.5 -5.5t-6.5 -12.5t-3.5 -18.5t-3.5 -18.5q-4 -13 -14 -37q-12 -30 -16 -45q-24 -82 -71 -142q-3 -4 -4.5 -10t-3.5 -10q12 -9 20 -9q12 0 22 20l24 52q9 20 21.5 45.5
t26.5 58.5q6 16 9.5 26.5l5.5 16.5q5 16 7.5 21.5t9.5 5.5q4 -7 10 -23q8 -20 13 -28l100 -164q10 -15 23 -15q10 0 18 8q-3 5 -5.5 10.5z" />
    <glyph glyph-name="underscore" unicode="_" horiz-adv-x="288" 
d="M257 29q-7 6 -14 2q-11 -7 -18 -7l-44 3q-146 10 -141 7q-2 1 -8.5 -4.5t-8.5 -8.5q-1 -2 -1 -7q0 -6 3 -9.5t8 -3.5h40q150 0 170 2q4 1 10.5 4t12.5 5q-2 11 -9 17z" />
    <glyph glyph-name="braceleft" unicode="{" horiz-adv-x="260" 
d="M103.5 211q2.5 -4 3.5 -7q7 -52 19 -173q2 -21 4 -63t5 -63q2 -16 11 -27t23 -11q5 0 8 1q22 4 44.5 14t28.5 12l24 10q2 1 3.5 4.5t3.5 5.5q-11 4 -22 4q-17 0 -45 -11q-26 -10 -43 -11q-2 8 -7.5 23.5t-6.5 27.5l-2 54q0 49 -3 72q-3 24 -9 54t-8 42q-4 16 -10 48
q-6 26 -6 37l3 42q4 46 4 69q0 20 -1 30q-4 45 -15 94.5t-13 60.5l-10 46q-1 3 -1 8q0 19 12 41t27 28q8 3 16 3q17 0 35 -9t28 -23q5 -8 10 -19l11 -21q10 9 10 21q0 23 -28 51q-13 14 -32 21t-39 7t-35.5 -7.5t-22.5 -22.5q-17 -34 -17 -77q0 -11 1 -16q5 -41 23 -116
l12 -54q6 -30 6 -61q0 -47 -14 -95l-13 1q-24 0 -44.5 -8.5t-21.5 -20.5q-1 -7 3 -9t15.5 -2t17.5 -3q10 -4 21 -4q16 0 33 9q1 -3 3.5 -7z" />
    <glyph glyph-name="bar" unicode="|" horiz-adv-x="188" 
d="M114 -99.5q-3 6.5 -4 11.5l-3 63q-4 63 -6 126v37l1 175v44q0 59 -2 177l-1 89q0 11 -3 17.5t-11 6.5q-13 0 -16 -8t-2 -23q9 -83 9 -139v-61v-31q0 -46 2 -140l1 -70q0 -92 -1 -139q-2 -84 -4 -124q-1 -30 17 -30q8 0 16 4q3 2 5.5 2.5t5.5 1.5q-1 4 -4 10.5z" />
    <glyph glyph-name="braceright" unicode="}" horiz-adv-x="242" 
d="M17.5 618.5q12.5 16.5 22.5 23.5t20 7q7 0 19 -5q10 -5 18.5 -19t9.5 -26q3 -36 5 -107q0 -35 1 -53q1 -15 1 -45q0 -65 6 -97q2 -13 4.5 -23t2.5 -16q0 -4 -2.5 -8.5t-7.5 -10.5q-13 -16 -17 -22q-17 -24 -17 -58q0 -28 13 -73q7 -24 23 -72q11 -28 17 -50q2 -8 2 -10
q0 -14 -14 -14q-2 0 -10 2q-20 7 -40 20t-23 15q-8 5 -22 17l-8 -6q3 -5 8 -16t11 -18q7 -7 18.5 -16t17.5 -14q15 -14 39 -14q11 0 31 4q10 3 17.5 10t7.5 18q0 2 -2 10l-9 30q-3 10 -9 31.5t-12 36.5q-12 32 -18 53.5t-6 43.5q0 25 9 46q7 17 13.5 23.5t17.5 6.5
q7 0 24 -5q9 -3 16 -3q19 0 28 24q-6 3 -17.5 8.5t-19.5 7.5q-35 5 -38 35q-8 92 -8 136l1 86q0 76 -14 121q-7 21 -21.5 32t-34.5 11q-14 0 -30 -6q-44 -17 -44 -58q0 -5 2 -17q6 7 18.5 23.5z" />
    <glyph glyph-name="asciitilde" unicode="~" horiz-adv-x="466" 
d="M433 320v3q0 9 -4 12.5t-9 2.5q-10 -44 -19 -66t-22 -35q-21 -21 -37.5 -30t-36.5 -9q-10 0 -15 1q-13 1 -26.5 11t-33.5 29q-25 24 -44 37t-40 13q-25 0 -52.5 -17t-45 -43.5t-15.5 -51.5q0 -14 17 -16q0 6 5 22t9 22q40 59 79 59q30 0 61 -34q22 -24 49 -37.5t53 -13.5
q21 0 40 9q80 33 87 132z" />
    <glyph glyph-name="copyright" unicode="&#xa9;" horiz-adv-x="636" 
d="M565 296q26 -47 26 -97q0 -35 -13 -67t-39 -57q-104 -102 -243 -102q-13 0 -39 2q-95 10 -143 76q-69 97 -69 190q0 40 12 80q40 134 158 194q51 26 116 26q26 0 61 -5q53 -9 99.5 -45.5t58.5 -84.5q1 -2 3 -20l3 -21q10 0 10 24q0 13 -2 33q-6 41 -51 81.5t-95 51.5
q-43 9 -84 9q-141 0 -235 -113q-77 -94 -77 -210q0 -42 12.5 -82t34.5 -82q52 -99 170 -121q30 -6 58 -6q57 0 115 23q50 19 89 42.5t67 58.5q46 58 46 121q0 35 -14 79q-9 32 -44 41zM403.5 400q-6.5 6 -11.5 9q-32 19 -73 19q-31 0 -61 -10t-52 -28q-65 -50 -65 -122
q0 -14 1 -21q15 -114 93 -168q41 -30 85 -30q46 0 97 37q8 6 17 11.5t10.5 9t-2.5 9.5q-32 -16 -60 -28q-34 -13 -61 -13q-41 0 -73 24q-53 38 -72 114q-6 21 -6 46q0 15 3 27q16 58 48.5 85.5t91.5 27.5q24 1 80 -7l23 -3q-6 5 -12.5 11z" />
    <glyph glyph-name="guillemotleft" unicode="&#xab;" horiz-adv-x="217" 
d="M218 566q0 51 -21 99q-6 14 -16 14q-12 0 -22 -17q28 -56 28 -103q0 -36 -15.5 -70.5t-48.5 -76.5q-5 -8 -5 -15q0 -5 4 -15q96 77 96 184zM26 400q3 -2 5 -2t10 5q29 21 46 65.5t17 91.5q0 52 -22 83q-9 13 -23.5 22.5t-26.5 9.5q-10 0 -15 -9q53 -63 53 -132
q0 -55 -36 -100q-5 -7 -8.5 -16t-5.5 -15q3 -1 6 -3z" />
    <glyph glyph-name="degree" unicode="&#xb0;" horiz-adv-x="209" 
d="M46 439q17 -20 46 -20q12 0 29 5q36 12 51 39t22 70q1 3 1 10q0 18 -9.5 32t-26.5 30q-14 12 -27 12q-12 0 -25 -11q-1 -1 -3 0t-3 1q-36 1 -61.5 -24.5t-25.5 -61.5q-3 -44 32 -82zM144 472q-21 -27 -47 -27q-17 0 -35.5 23t-18.5 44q0 29 17.5 48.5t44.5 19.5
q35 0 47.5 -9.5t12.5 -35.5q0 -36 -21 -63z" />
    <glyph glyph-name="periodcentered" unicode="&#xb7;" horiz-adv-x="172" 
d="M110 329q-4 8 -13 12.5t-16 0.5q-13 -8 -23 -18q-2 -2 -3 -8t1 -8q16 -14 26 -16l3 -1q5 0 17 7q5 3 15 16z" />
    <glyph glyph-name="guillemotright" unicode="&#xbb;" horiz-adv-x="217" 
d="M218 566q0 51 -21 99q-6 14 -16 14q-12 0 -22 -17q28 -56 28 -103q0 -36 -15.5 -70.5t-48.5 -76.5q-5 -8 -5 -15q0 -5 4 -15q96 77 96 184zM26 400q3 -2 5 -2t10 5q29 21 46 65.5t17 91.5q0 52 -22 83q-9 13 -23.5 22.5t-26.5 9.5q-10 0 -15 -9q53 -63 53 -132
q0 -55 -36 -100q-5 -7 -8.5 -16t-5.5 -15q3 -1 6 -3z" />
    <glyph glyph-name="multiply" unicode="&#xd7;" horiz-adv-x="370" 
d="M239 303.5q16 17.5 32 32.5q33 30 52 48q15 18 14 17q-5 8 -13 8q-7 0 -11 -4q-40 -31 -64 -55q-9 -9 -52 -57l-22 -25l-23 23l-68 72q-11 13 -22 13q-9 0 -19 -6q10 -14 14 -18q37 -38 57 -63q28 -30 40 -42q-55 -71 -94 -128q-3 -3 -3 -11q0 -14 14 -19q5 11 40 58.5
t59 78.5l35 -35q31 -33 47 -47q18 -16 31 -16q7 0 13 6l-20 22q-60 65 -87 90q34 40 50 57.5z" />
    <glyph glyph-name="uni05B0" unicode="&#x5b0;" 
d="M169 -97.5q7 5.5 17 5.5t16 -4t8 -14l1 -6q0 -6 -6 -16q-6 -9 -20 -9q-27 0 -24 30q1 8 8 13.5zM184 -195q11 0 19 -8q9 -9 9 -17q0 -5 -5 -13q-5 -9 -19 -13h-3q-8 0 -18 8q-7 7 -7 17q0 6 3.5 12t8.5 10q6 4 12 4z" />
    <glyph glyph-name="uni05B1" unicode="&#x5b1;" 
d="M407 -142q-10 0 -18 8q-9 7 -9 17q0 6 5 14q8 10 19 12l4 1q8 0 17 -9q7 -7 7 -17q0 -13 -11 -21q-7 -5 -14 -5zM324 -100q6 -12 4 -22q-5 -18 -26 -18q-10 0 -16.5 5.5t-7.5 13.5q-1 14 5.5 22t19.5 8q15 0 21 -9zM482 -96.5q7 5.5 17 5.5q20 0 24 -18l1 -6q0 -7 -6 -17
q-6 -8 -20 -8q-28 0 -24 30q1 8 8 13.5zM371.5 -231.5q-6.5 -5.5 -16.5 -5.5q-21 0 -25 18v5q0 9 5 17q3 4 10.5 6.5t10.5 2.5q13 0 19 -8t5 -22q-2 -8 -8.5 -13.5zM497 -195q11 0 19 -8q9 -9 9 -17q0 -5 -5 -13q-6 -10 -19 -12l-4 -1q-8 0 -17 9q-7 7 -7 16q0 12 12 22
q4 4 12 4z" />
    <glyph glyph-name="uni05B2" unicode="&#x5b2;" 
d="M474 -97.5q7 5.5 17 5.5t16 -4t8 -14l1 -6q0 -6 -6 -16q-6 -9 -20 -9q-27 0 -24 30q1 8 8 13.5zM401.5 -132q-2.5 -2 -10.5 -2h-49l-18 1l-39 -1q-7 0 -8.5 2t-1.5 9l-1 13q0 8 1.5 11t9.5 3h18h25h16h49q8 0 9.5 -3t1.5 -6.5v-4.5v-13q0 -7 -2.5 -9zM489 -195
q11 0 19 -8q9 -9 9 -17q0 -6 -4 -13q-6 -10 -20 -13h-3q-9 0 -17 8q-7 7 -7 18q0 13 11 21q6 4 12 4z" />
    <glyph glyph-name="uni05B3" unicode="&#x5b3;" 
d="M434 -97.5q7 5.5 17 5.5t16 -4t8 -14l1 -6q0 -6 -6 -16q-6 -9 -20 -9q-27 0 -24 30q1 8 8 13.5zM384 -123q0 -6 -5.5 -7.5t-27.5 -1.5h-19q-4 0 -5 -2.5t0 -8.5q1 -5 6 -13q1 -4 4 -9.5t3 -10.5q0 -6 -4 -11q-6 -8 -19 -12h-3q-11 0 -18 8q-5 5 -5 11q0 5 6 17.5t7 19.5
q2 9 1.5 10.5t-6.5 1.5q-8 -1 -44 -1q-7 0 -8.5 1.5t-1.5 7.5l-1 13q0 8 1.5 11t9.5 3h38h25h16h39q8 0 9.5 -3t1.5 -6.5v-4.5v-13zM449 -195q11 0 19 -8q9 -9 9 -17q0 -6 -4 -13q-6 -10 -20 -13h-3q-9 0 -17 8q-7 7 -7 18q0 13 11 21q6 4 12 4z" />
    <glyph glyph-name="uni05B4" unicode="&#x5b4;" 
d="M189 -92q11 0 18 -8q9 -9 9 -19q0 -6 -4 -13q-6 -10 -20 -14h-2q-10 0 -19 9q-8 8 -8 18q0 15 12 23q5 4 14 4z" />
    <glyph glyph-name="uni05B5" unicode="&#x5b5;" 
d="M342 -142q-10 0 -18 8q-9 7 -9 17q0 6 5 14q8 10 19 12l4 1q10 0 17 -9q7 -7 7 -17q0 -13 -11 -21q-7 -5 -14 -5zM267 -100q5 -7 5 -15q0 -25 -26 -25q-10 0 -16.5 5.5t-7.5 13.5q-2 14 5 22t20 8q14 0 20 -9z" />
    <glyph glyph-name="uni05B6" unicode="&#x5b6;" 
d="M343 -136q-11 0 -18 7q-8 8 -8 17q0 7 4 14q8 10 19 12l5 1q9 0 16 -9q7 -7 7 -17q0 -13 -11 -21q-5 -4 -14 -4zM270 -95q6 -10 4 -22q-3 -10 -9 -14t-16 -4t-16.5 5.5t-7.5 13.5q-2 14 5 22t20 8q14 0 20 -9zM308 -206.5q-7 -5.5 -17 -5.5t-16 4t-8 14l-1 6q0 6 6 16
q6 9 20 9q13 0 19 -8t5 -22q-1 -8 -8 -13.5z" />
    <glyph glyph-name="uni05B7" unicode="&#x5b7;" 
d="M325.5 -129.5q-2.5 -1.5 -10.5 -1.5h-20h-21h-50q-7 0 -8.5 1.5t-1.5 8.5l-1 13q0 9 1.5 11.5t9.5 2.5h28h26h20h18q7 0 9 -2t2 -6q0 -8 0.5 -11.5t0.5 -6.5q0 -8 -2.5 -9.5z" />
    <glyph glyph-name="uni05B8" unicode="&#x5b8;" 
d="M335 -121q0 -6 -2 -7.5t-11 -1.5h-31q-3 0 -4 -1.5t-1 -4.5q0 -8 3 -12.5t3 -5.5q7 -14 7 -20q0 -5 -3 -11q-6 -10 -20 -13h-3q-9 0 -17 8q-5 5 -5 12q0 6 5.5 18t7.5 18q1 9 0.5 11t-5.5 1h-36q-8 0 -9.5 1t-1.5 7v13v4q0 6 2 8t9 2h29h26h16h30q8 0 9.5 -3t1.5 -6.5
v-4.5v-12z" />
    <glyph glyph-name="uni05B9" unicode="&#x5b9;" 
d="M189 629q11 0 18 -8q9 -9 9 -19q0 -6 -4 -13q-6 -10 -20 -14h-2q-10 0 -19 9q-8 8 -8 18q0 15 12 23q5 4 14 4z" />
    <glyph glyph-name="uni05BA" unicode="&#x5ba;" 
d="M189 629q11 0 18 -8q9 -9 9 -19q0 -6 -4 -13q-6 -10 -20 -14h-2q-10 0 -19 9q-8 8 -8 18q0 15 12 23q5 4 14 4z" />
    <glyph glyph-name="uni05BB" unicode="&#x5bb;" 
d="M305 -104q5 -11 3 -22q-3 -10 -9 -14t-16 -4t-16.5 5.5t-7.5 13.5q-1 14 5.5 22t19.5 8q15 0 21 -9zM366 -167q0 -1 3.5 -7t0.5 -14q-7 -20 -28 -20q-10 0 -16 8.5t-6 17.5q0 12 7 18.5t18 6.5q14 0 21 -10zM429 -228q6 -10 4 -22q-4 -14 -16 -18h-9q-10 0 -16.5 5.5
t-7.5 13.5v5q0 17 13 22q6 3 12 3q14 0 20 -9z" />
    <glyph glyph-name="uni05BC" unicode="&#x5bc;" 
d="M182 386q10 0 18 -8q9 -9 9 -17q0 -6 -4 -13q-7 -9 -18 -13h-3q-9 0 -17 8q-10 9 -8 20q0 11 11 19q6 4 12 4z" />
    <glyph glyph-name="uni05BE" unicode="&#x5be;" horiz-adv-x="259" 
d="M199 469q19 1 28.5 6.5t9.5 12.5q0 8 -9 8q-32 1 -86 1q-65 0 -97 -1q-10 0 -16.5 -6t-6.5 -13q0 -5 3.5 -8t10.5 -3z" />
    <glyph glyph-name="uni05C1" unicode="&#x5c1;" 
d="M189 629q11 0 18 -8q9 -9 9 -19q0 -6 -4 -13q-6 -10 -20 -14h-2q-10 0 -19 9q-8 8 -8 18q0 15 12 23q5 4 14 4z" />
    <glyph glyph-name="uni05C2" unicode="&#x5c2;" 
d="M189 629q11 0 18 -8q9 -9 9 -19q0 -6 -4 -13q-6 -10 -20 -14h-2q-10 0 -19 9q-8 8 -8 18q0 15 12 23q5 4 14 4z" />
    <glyph glyph-name="uni05D0" unicode="&#x5d0;" horiz-adv-x="469" 
d="M85 -35q4 0 4 10q0 121 -3 180q-3 48 -3 102q0 119 13 214v3q0 13 -12 22q-1 1 -3 1q-4 0 -8 -7t-5 -13q-7 -46 -11 -125q-2 -78 -2 -120q0 -36 1 -54q2 -39 8 -115l5 -71q0 -7 3.5 -15t8.5 -11q1 -1 4 -1zM455 53.5q0 1.5 -2 1.5q-4 0 -27 -9q-39 -13 -82 -13
q-47 0 -95 17q-42 16 -66.5 45t-25.5 71q-2 41 12.5 78.5t44.5 68.5q19 20 43.5 31.5t48.5 11.5q26 0 48 -13l31 -21q31 -24 38 -24q2 0 2 2q0 7 -13 23q-20 25 -42 41q-38 24 -69 24q-20 0 -37 -8q-64 -28 -98.5 -81t-34.5 -124q0 -72 42 -112.5t118 -52.5q18 -3 35 -3
q18 0 58 4q44 5 70 39q1 2 1 3.5z" />
    <glyph glyph-name="uni05D1" unicode="&#x5d1;" horiz-adv-x="542" 
d="M71 331q85 29 150 29q56 0 112 -22q117 -47 146 -155q5 -22 5 -36q0 -44 -28 -77.5t-71 -47.5q-21 -7 -43 -7q-57 0 -106 49q-15 15 -29.5 35t-27.5 40q-16 24 -25 36q-6 8 -20 10q-2 0 -5 -6.5t-4 -10.5l-6 -31q-4 -22 -7 -32q-8 -28 -13 -42q-6 -19 -16 -57
q-2 -8 -2 -12q0 -9 5 -14q2 -2 3 -2q4 0 10.5 10t9.5 12q1 1 1 4l41 122q14 -18 25 -31q36 -45 50 -59q18 -17 40.5 -26.5t52.5 -15.5q18 -3 35 -3q54 0 94 31.5t57 80.5q8 23 8 50q0 59 -44 120q-76 110 -236 110q-90 0 -176 -30q-41 -16 -58 -48q26 10 72 26z" />
    <glyph glyph-name="uni05D2" unicode="&#x5d2;" horiz-adv-x="406" 
d="M326 -108q-3 -1 -7.5 -3.5t-8.5 -3.5q-79 -15 -125 -15q-63 0 -116 21q-28 11 -45 24.5t-18 38.5q-2 51 10 80q28 67 77 114.5t126 75.5q9 -3 30 -19q25 -21 49 -33t47 -12q17 0 38 8q8 3 12 13q2 8 2 12q0 28 -38.5 45.5t-85.5 17.5q-9 0 -27 -2q-3 0 -8 -0.5t-8 0.5
q-3 7 -15 33.5t-16 46.5q-4 17 -4 36q0 23 8 41t25 37q-6 5 -14 5q-16 0 -28.5 -20.5t-13.5 -43.5q0 -45 6.5 -78t28.5 -62q-7 -3 -24 -8.5t-28 -12.5q-8 -5 -30.5 -19t-40 -28.5t-29.5 -30.5q-39 -53 -58 -90.5t-19 -84.5q0 -77 58 -103q23 -11 47.5 -16.5t64.5 -11.5
q18 -2 29 -2q15 0 43 4q54 8 108 21q18 4 18 20q0 4 -3 12zM307 201.5q-37 16.5 -50 30.5q69 -2 106 -33q7 -6 7 -9q0 -5 -13 -5t-50 16.5z" />
    <glyph glyph-name="uni05D3" unicode="&#x5d3;" horiz-adv-x="403" 
d="M242 -29q32 1 56 19.5t44 49.5q22 34 22 64q0 28 -15 56t-42 59q50 40 64 98q3 12 3 24q0 33 -19 62t-44 41q-60 28 -122 28q-61 0 -128 -27q-47 -19 -62 -70q8 6 11 8q40 29 73.5 45t69.5 16q64 0 113 -15q41 -13 59.5 -34t18.5 -57q0 -34 -10.5 -51t-28 -31.5
t-23.5 -20.5q-46 16 -83 16q-55 0 -91 -33q-18 -18 -18 -42q0 -9 1 -13q1 -5 10 -11.5t15 -5.5q46 1 75 7.5t46.5 16.5t43.5 30q54 -48 54 -98q0 -42 -40 -78q2 2 -38 -32l-19 -16q2 -4 4 -5zM144.5 207q24.5 13 58.5 13q22 0 45 -6q-17 -27 -133 -43q5 23 29.5 36z" />
    <glyph glyph-name="uni05D4" unicode="&#x5d4;" horiz-adv-x="532" 
d="M94 425q39 20 100 26q22 2 41 -4t36 -14.5t24 -11.5q58 -25 117 -85q22 -24 34 -51.5t19.5 -54.5t10.5 -36q7 -18 7 -43q0 -9 -2 -23q-13 -62 -55 -99.5t-108 -57.5q-4 -1 -9 -5.5t-8 -6.5l3 -5l27 3t31 7q18 8 37.5 19.5t24.5 14.5q75 48 84 142q1 6 1 17
q0 29 -8.5 55.5t-25.5 65.5l-9 22q-12 32 -24 45q-39 44 -115 95q-59 40 -132 40q-55 0 -101.5 -23t-66.5 -60q-8 -14 -8 -23q0 -8 9 -11q27 42 66 62zM157 212q17 12 29 18t21 6q11 0 21 -7q19 -14 19 -41q0 -13 -4 -24q-6 -18 -12 -24l-65 -63l-33 -32q-4 -4 -10 -14
q3 0 8.5 -0.5t8.5 1.5q66 47 90 66q45 36 45 93q0 28 -17.5 50.5t-41.5 22.5q-16 0 -36 -9.5t-34 -23t-14 -25.5q0 -5 3 -10q5 4 22 16z" />
    <glyph glyph-name="uni05D5" unicode="&#x5d5;" horiz-adv-x="168" 
d="M88 69.5q2 38.5 3 49.5l2 48q3 46 5 166l3 105q0 8 2 20q2 22 2 31q0 12 -2.5 15.5t-12.5 2.5q-13 -3 -14 -17q-3 -34 -5.5 -138t-3.5 -151l-3 -148q-1 -31 4.5 -56t12.5 -25q6 0 6 31q-1 28 1 66.5z" />
    <glyph glyph-name="uni05D6" unicode="&#x5d6;" horiz-adv-x="441" 
d="M-20 -36q0 -9 14 -17q88 -52 181 -52q34 0 73 9q102 25 155 107q22 36 22 72q0 31 -16 62q-22 45 -60.5 71t-92.5 40.5t-151 32.5q2 7 6.5 18.5t5.5 19.5q13 49 20 92v1q0 4 -4 10.5t-6 11.5q-2 -2 -8 -9t-8 -13q-4 -13 -16 -55q-12 -46 -20 -69q-5 -17 -5 -22
q0 -9 7 -12t24 -5q91 -9 152.5 -28t103.5 -61q23 -24 33.5 -41.5t10.5 -35.5q0 -26 -24 -65q-32 -54 -87.5 -78.5t-124.5 -24.5q-14 0 -25.5 3t-38.5 12q-40 13 -116 36q-5 -5 -5 -10z" />
    <glyph glyph-name="uni05D7" unicode="&#x5d7;" horiz-adv-x="453" 
d="M61 205q-4 -82 -4 -126q0 -53 4 -97l16 -6l3 17q3 72 11 227q2 28 4 41q4 42 4 61q0 26 -9 45q10 5 20 12t18 11q34 19 86 19l28 -1q16 -1 31.5 -11.5t39.5 -29.5q52 -43 75 -120q10 -37 10 -65q0 -69 -46 -128q-15 -19 -44 -44l-24 -21q7 -8 15 -8q9 0 18.5 7t13.5 9
q93 68 93 191q0 94 -64 176q-41 52 -98 65q-27 6 -52 6q-71 0 -138 -50q-11 -8 -20 -21t-9 -25q0 -9 5 -14q4 7 8.5 12t7.5 9q1 -47 -3 -141z" />
    <glyph glyph-name="uni05D8" unicode="&#x5d8;" horiz-adv-x="508" 
d="M536 745q-128 0 -228.5 -35.5t-185.5 -130.5q-93 -104 -93 -234q0 -18 1 -27q8 -117 54 -217q39 -84 120 -107q23 -6 46 -6q47 0 90 23t68 62q55 82 55 168q0 42 -13 82q-5 16 -16 30.5t-22 14.5q-6 0 -10 -4q2 -6 4 -10.5t3 -8.5q2 -7 7.5 -18t8.5 -18q10 -24 10 -59
q0 -59 -27.5 -119t-67.5 -85q-26 -15 -46 -23.5t-42 -8.5q-11 0 -25 3q-31 9 -54 23.5t-42 38.5q-16 22 -27.5 46t-23.5 57q-8 25 -13 55t-9 59q-3 26 -3 49q0 99 50 172q56 84 122 124.5t134 54t195 25.5q10 1 16.5 5.5t6.5 17.5z" />
    <glyph glyph-name="uni05D9" unicode="&#x5d9;" horiz-adv-x="154" 
d="M92 480q-1 11 -3.5 17t-9.5 5q-4 -1 -9.5 -9.5t-5.5 -15.5v-53q0 -99 1 -136q1 -17 7 -17t12 17.5t6 35.5q2 104 2 156z" />
    <glyph glyph-name="uni05DA" unicode="&#x5da;" horiz-adv-x="406" 
d="M31.5 432.5q10.5 12.5 19.5 17.5q79 43 149 43q99 0 130 -74q15 -31 15 -68q0 -44 -28 -102q-15 -30 -28 -51t-17 -27q-35 -49 -74 -121q-53 -99 -53 -181q0 -54 29 -90q19 -26 40 -26q8 0 15 3q46 18 78 37.5t59 43.5q1 1 9.5 8t8.5 15q0 5 -5 9q-17 -6 -47 -28
q-28 -21 -47.5 -32.5t-40.5 -19.5q-16 -6 -28 -6q-18 0 -27 17q-15 32 -18 50t-3 35q0 35 12 71t34 77q26 50 81 129q32 47 37 57q18 42 27 74t9 63q0 32 -12 66q-26 66 -82 86q-36 12 -74 12q-35 0 -71 -12l-31.5 -10.5t-39.5 -17t-30 -22.5q-21 -21 -21 -33q0 -8 7 -12
q7 7 17.5 19.5z" />
    <glyph glyph-name="uni05DB" unicode="&#x5db;" horiz-adv-x="411" 
d="M31 26q16 -7 31.5 -9.5t21.5 -3.5q62 -14 102 -14q37 0 66 12.5t59 42.5q22 22 33 49t23 73q11 44 11 81q0 83 -50 154q-25 35 -55 55q-29 21 -74 31q-24 6 -46 6q-57 0 -106 -41q-5 -5 -9 -15l-6 -15q4 -2 8 -5l20 19q10 10 13 12q48 17 87 17q45 0 84 -24t66 -61
t36 -75q7 -25 7 -54q0 -37 -14 -90q-15 -56 -33 -87t-46 -45t-71 -14q-33 0 -87 8q-31 5 -73 18q-17 5 -21 5.5t-1 -6.5q8 -17 24 -24z" />
    <glyph glyph-name="uni05DC" unicode="&#x5dc;" horiz-adv-x="407" 
d="M237 410q-71 0 -129.5 -41t-90.5 -109q-18 -37 -18 -80q0 -61 35 -112t90 -64q44 -11 101 -11q64 0 113 13q22 6 34.5 20.5t12.5 36.5q0 9 -1 13q-26 159 -46 241q-17 65 -39.5 129t-26.5 77l-17 50q-5 14 -5 31q0 40 35.5 64t91.5 24q22 0 33 -2q8 -1 60 -9q6 7 -5 15.5
t-28 14.5q-36 12 -73 12q-59 0 -99.5 -30.5t-40.5 -82.5q0 -16 2 -24q8 -41 23 -88l9 -29q2 -6 16 -44l7 -19q-20 4 -44 4zM356 89q0 -28 -11 -39t-42 -21q-27 -8 -66 -8q-52 0 -116 16q-40 11 -69 50.5t-29 85.5q0 6 2 20q9 53 41.5 98t75.5 71t83 26q33 0 57 -20t33 -61
q22 -95 38 -177q3 -25 3 -41z" />
    <glyph glyph-name="uni05DD" unicode="&#x5dd;" horiz-adv-x="606" 
d="M291 39q26 -6 54.5 -10.5t52.5 -4.5q85 0 133 60q57 70 57 142q0 24 -8 54q-17 60 -59 99t-106 68q-40 18 -87 18q-54 0 -134 -29q-93 -35 -153 -134l-27 -48q13 -94 20 -184q3 -42 5 -76.5t4 -62.5l4 -67h6q13 0 13 11q0 74 -5 161q-1 18 -3 73.5t-1 102.5
q136 -152 234 -173zM532.5 124q-21.5 -41 -68.5 -62q-32 -14 -82 -14q-71 0 -131.5 31.5t-121.5 87.5q-38 36 -63 72q-6 9 -6 25q0 17 6 24l15 19q21 28 38 47.5t37 33.5q74 52 167 52q23 0 45 -3q42 -5 75.5 -28t72.5 -62q23 -23 33.5 -52t14.5 -69q-10 -61 -31.5 -102z
" />
    <glyph glyph-name="uni05DE" unicode="&#x5de;" horiz-adv-x="445" 
d="M91 300l16 -18q10 -13 65 -89q46 -68 76 -103q47 -55 85 -88t53 -27q-26 84 -26 189q0 104 27 201.5t79 163.5q-8 7 -17 7q-18 0 -35 -32q-36 -63 -61 -168.5t-25 -190.5q0 -29 3 -53q2 -9 4 -25l3 -22q-7 6 -20 17t-21 20q-21 22 -48.5 57.5t-34.5 44.5q-34 46 -54 70
q-28 34 -41 51q-16 23 -33 42q-12 13 -20 13q-11 0 -20 -20q-10 -22 -13 -51q-4 -33 -6 -115q-2 -75 -5 -106q-3 -26 -7 -73l13 -2q19 12 21 29q5 33 5 89v59q0 58 4 83q3 19 13 68z" />
    <glyph glyph-name="uni05DF" unicode="&#x5df;" horiz-adv-x="152" 
d="M101.5 528.5q-4.5 7.5 -8.5 7.5q-5 0 -8.5 -7.5t-3.5 -20.5q-2 -23 -4 -69q-2 -58 -5 -87q-9 -95 -22 -196q-20 -179 -26 -242q-7 -74 -7 -118t7 -44q6 0 14.5 34t14.5 87q7 61 11 149q1 14 3.5 57t8.5 91q18 158 26 215q10 79 10 95q0 12 -3 27q-3 14 -7.5 21.5z" />
    <glyph glyph-name="uni05E0" unicode="&#x5e0;" horiz-adv-x="212" 
d="M-216 -192q3 -1 9.5 -4t11.5 -4q65 -7 98 -7q64 0 106 29t75 109q27 67 36 116.5t13 131.5l3 42q3 50 3 98q0 38 -2 116l-1 58q0 5 -4.5 11t-5.5 8q-3 -2 -9.5 -7t-7.5 -9q-3 -19 -3 -40q0 -15 1 -22q4 -80 4 -116q0 -161 -37 -301q-21 -80 -43.5 -121.5t-65.5 -61
t-120 -18.5h-58z" />
    <glyph glyph-name="uni05E1" unicode="&#x5e1;" horiz-adv-x="570" 
d="M83.5 412.5q-35.5 -46.5 -62.5 -113.5q-14 -35 -14 -75q0 -51 24 -98t64 -81t87 -48q44 -12 86 -12q66 0 137 27q130 49 130 185q0 20 -3 42q7 8 7 19q0 3 -2 13q-10 38 -35.5 73.5t-63.5 75.5q-76 87 -169 87q-47 0 -95 -22q-55 -26 -90.5 -72.5zM447 359
q-8 0 -13.5 -2.5t-2.5 -5.5q81 -98 81 -167q0 -70 -77 -121q-32 -23 -75 -35t-87 -12q-41 0 -78.5 10t-66.5 30q-43 29 -68 72t-25 92q0 43 21 86q23 52 50.5 88t69.5 59q45 27 92 27q79 0 155 -81q17 -17 36 -42q-3 2 -12 2z" />
    <glyph glyph-name="uni05E2" unicode="&#x5e2;" horiz-adv-x="486" 
d="M491 -42q0 -44 -23.5 -76.5t-74.5 -55.5q-60 -27 -108 -43.5t-94 -21.5q-22 -2 -30 -2q-27 0 -42 10t-24 38q-12 35 -12 78q0 48 16 101q20 63 67 155.5t78 145.5q-9 4 -39 21q-18 9 -50 26t-85 44q-11 5 -47 16q-18 5 -23 7q5 18 23 18q1 0 16 -3q50 -16 99 -37.5
t120 -57.5q21 44 37 84t29.5 76t20.5 54l57 152q19 -1 19 -19q0 -7 -3 -15l-35 -93q-18 -47 -55 -145.5t-44 -112.5q96 -51 144 -133t58 -166q5 -27 5 -45zM461 -52q-4 50 -19 108q-17 56 -36.5 91.5t-50.5 63t-86 61.5l-12 -23q-51 -93 -78 -149t-44.5 -114t-17.5 -115
q0 -12 2 -38q3 -23 16 -35.5t34 -12.5q5 0 17 2q73 16 128.5 33t102.5 47q50 31 44 81z" />
    <glyph glyph-name="uni05E3" unicode="&#x5e3;" horiz-adv-x="447" 
d="M317 276q-59 -14 -101 -40t-69 -73q-17 -31 -17 -65q0 -42 22.5 -74t60.5 -39q42 -7 93 -7q31 0 62 3q29 3 42.5 9.5t18 21.5t4.5 46q0 22 -2 33l-12 55q-15 77 -27 117q-25 85 -33.5 143t-18.5 163q57 16 110 47t85.5 69.5t32.5 74.5q0 40 -44 70q-43 28 -81 28
q-41 0 -73.5 -29t-50.5 -81t-18 -119q0 -24 1 -37q-144 -41 -235 -88.5t-91 -110.5q0 -30 25 -64q11 -15 45.5 -22t73.5 -7q28 0 37 2q-1 11 -14.5 15.5t-41.5 7.5q-4 0 -18 2t-24.5 5t-16.5 8q-35 25 -35 51q0 46 88.5 92t206.5 76q12 -84 20.5 -132.5t19.5 -86.5
q4 -13 8 -37l3 -21zM334 628q0 53 15 99.5t41.5 74.5t58.5 28q31 0 61 -26q28 -25 28 -52q0 -44 -61.5 -87t-141.5 -65q-1 9 -1 28zM181 39q-21 23 -21 54q0 30 17 58q48 83 159 93q34 2 40 -32q6 -43 15 -87q8 -44 11 -66q1 -4 1 -12q0 -33 -35 -40q-45 -8 -66 -8
q-26 0 -61 8q-39 9 -60 32z" />
    <glyph glyph-name="uni05E4" unicode="&#x5e4;" horiz-adv-x="490" 
d="M84 568.5q36 11.5 86 11.5q47 0 85.5 -19t78.5 -55q58 -51 88.5 -120t30.5 -142q0 -76 -33 -144t-97 -115q-40 -30 -97 -30q-52 0 -88 27q-41 30 -64 78.5t-23 101.5q0 46 17 83q23 52 76 61q4 1 13 1q37 0 41 -34q3 -19 3 -35q0 -41 -15.5 -69.5t-56.5 -80.5
q-13 -15 -27 -33q4 -4 14 -4q25 0 52 34.5t44.5 84t17.5 88.5q0 13 -3 25q-6 25 -24.5 40.5t-41.5 15.5q-7 0 -11 -1q-82 -15 -112 -96q-14 -42 -14 -80q0 -71 42 -142q28 -48 69.5 -71t88.5 -23q50 0 95 24q76 42 119 122.5t43 171.5q0 39 -9 78q-36 159 -176 250
q-64 41 -129 41q-57 0 -113 -31q-17 -9 -27 -19.5t-10 -27.5q0 -4 2 -14q29 36 65 47.5z" />
    <glyph glyph-name="uni05E5" unicode="&#x5e5;" horiz-adv-x="333" 
d="M398 696q10 41 10 80q0 63 -25.5 104.5t-72.5 41.5q-30 0 -56 -31.5t-42 -82t-16 -104.5q0 -17 1 -25q-73 19 -140 19q-140 0 -153 -97q-2 -20 -2 -27q0 -55 34.5 -79t98.5 -24q65 0 181 26q9 -18 22 -144.5t17 -199.5q2 -54 -19.5 -92t-56 -57t-70.5 -19t-60 18.5
t-24 51.5q0 21 8 41q13 36 43.5 60t63.5 24q23 0 42 -12q1 22 -9 33t-29 11q-24 0 -54 -17t-53 -44q-18 -23 -29 -50t-11 -53q0 -42 33.5 -65.5t82.5 -23.5q40 0 77.5 16t62.5 48.5t28 78.5q2 22 2 66q0 52 -4 92q-6 73 -28 245q35 16 60 37t45 52q13 -5 35 -15
q4 -2 25 -10.5t51 -16.5q1 14 -4 21.5t-25 18t-68 28.5q18 35 28 76zM225 715q0 43 11.5 84t31 67t42.5 26q24 0 49 -32q31 -40 31 -96q0 -63 -41 -133q-36 14 -61.5 22.5t-33.5 11.5l-26 9q-3 20 -3 41zM48 672q48 0 150 -24q1 -43 18 -122q-106 -27 -180 -27
q-113 0 -113 68q0 16 4 29q20 76 121 76zM231 642l53 -18q21 -9 46 -16q-2 -3 -11 -17t-28 -29.5t-46 -26.5q-9 39 -14 107z" />
    <glyph glyph-name="uni05E6" unicode="&#x5e6;" horiz-adv-x="414" 
d="M8 537q0 44 52.5 70.5t119.5 26.5q11 0 33 -2q42 -5 71.5 -32t36.5 -67q3 -16 3 -33q0 -66 -57 -128q-16 -17 -56 -39q-24 -14 -44 -23q-19 -10 -25 -14.5t-8 -15.5q7 -11 20 -11q17 0 33 15q26 20 51 20q34 0 76 -37q60 -50 60 -123q0 -13 -1 -20q-7 -63 -88 -88
q-61 -20 -104 -20q-28 0 -56 7t-80 23l-59 18q-8 -28 73 -57q57 -20 114 -20q45 0 90 12q30 8 60 23.5t51 36.5q31 30 31 84q0 32 -12 64t-33 55q-18 19 -56 49l-30 25q46 54 59.5 83.5t18.5 79.5q3 37 -14.5 73t-48.5 60.5t-66 29.5q-18 3 -36 3q-81 0 -158 -53
q-43 -27 -43 -66q0 -7 1 -11q6 -28 18 -28q4 0 8 3q-5 11 -5 27z" />
    <glyph glyph-name="uni05E7" unicode="&#x5e7;" horiz-adv-x="460" 
d="M38 412q32 21 53.5 29.5t58.5 8.5q28 0 59 -4q45 -6 71.5 -18.5t54.5 -46.5q34 -42 50 -78.5t16 -73.5q0 -36 -14 -78.5t-44 -101.5q5 -4 12 -4q19 0 36.5 31.5t29 77.5t11.5 86q0 27 -6 46q-28 88 -69.5 133.5t-120.5 53.5q-28 4 -64 4q-16 0 -50 -2q-46 -4 -81.5 -22
t-35.5 -51q0 -7 1 -11q20 12 32 21zM155 255q-7 -9 -8 -18l-3 -41q-12 -155 -26 -264.5t-37 -155.5q-4 -8 -4 -13t5 -5q4 0 9 3t8 7q4 7 14 26t14 36q12 53 31.5 187.5t19.5 204.5q0 30 -4 42q-12 0 -19 -9z" />
    <glyph glyph-name="uni05E8" unicode="&#x5e8;" horiz-adv-x="391" 
d="M237 14q7 0 11 4q56 52 86 117.5t30 131.5q0 60 -24.5 112t-72.5 88q-34 27 -85 27q-60 0 -114 -35t-69 -87q5 -6 10 -6q4 0 7.5 1.5t5.5 4.5q43 47 80 69.5t91 19.5q73 -3 114 -89q30 -66 30 -116q0 -53 -27 -102.5t-90 -131.5q8 -8 17 -8z" />
    <glyph glyph-name="uni05E9" unicode="&#x5e9;" horiz-adv-x="413" 
d="M87 93q39 -50 84 -76t89 -26q55 0 92 40.5t41 115.5q1 9 -3.5 12.5t-10.5 5.5t-10 4q-8 -75 -36 -113.5t-70 -38.5q-36 0 -77.5 28t-84.5 82q75 57 138.5 138t101 167t37.5 158q0 57 -25 97q-15 26 -41.5 38t-57.5 12q-29 0 -57.5 -9.5t-48.5 -24.5q-51 -38 -78 -91
t-38 -120q-9 -52 -9 -121q0 -72 10.5 -137t29.5 -99q-12 -9 -64 -57q1 -6 6.5 -7.5t8.5 0.5l25 16l37 25q10 -17 11 -19zM50 327q-3 36 -3 72q0 109 38 185q22 48 53 79t77 40q26 4 36 4q50 0 74 -29.5t24 -81.5q0 -64 -34.5 -147.5t-94.5 -162.5t-133 -130q-30 85 -37 171z
" />
    <glyph glyph-name="uni05EA" unicode="&#x5ea;" horiz-adv-x="479" 
d="M448 104q-25 -49 -61.5 -85.5t-62.5 -39.5q-8 0 -20 12q47 33 77 65t47 74q16 36 16 74q0 50 -29 97q-67 107 -204 109q-37 0 -61.5 -10.5t-41.5 -31.5q25 -96 37.5 -158.5t12.5 -113.5q0 -77 -36 -125.5t-121 -70.5q-53 -13 -95 -30.5t-96 -48.5q-4 8 -4 17
q0 12 8.5 18.5t21.5 12t20 9.5q18 10 46 19.5t56 17.5q41 11 61 19q61 22 86 59.5t25 93.5q0 34 -7 73t-23 108q-4 17 -7.5 32.5t-6.5 28.5q-13 -31 -21 -68q-7 0 -11.5 8.5t-4.5 22.5q0 19 7 40.5t20 39.5q-5 23 -13 71q8 5 19 -5.5t15 -27.5l3 -13l8 6q60 39 124 39
q59 0 114 -34q113 -69 124 -216q3 -39 -22 -88z" />
    <glyph glyph-name="uni05F3" unicode="&#x5f3;" horiz-adv-x="96" 
d="M52.5 433.5q16.5 26.5 27.5 68.5t11 79q0 34 -11 54q-12 19 -51 45q-3 3 -10 3q-10 0 -19 -6q-5 -3 1 -9.5t22 -21.5q23 -21 27 -28q13 -21 13 -48q0 -15 -4 -33t-9 -35l-29 -91q15 -4 31.5 22.5z" />
    <glyph glyph-name="uni05F4" unicode="&#x5f4;" horiz-adv-x="217" 
d="M218 566q0 51 -21 99q-6 14 -16 14q-12 0 -22 -17q28 -56 28 -103q0 -36 -15.5 -70.5t-48.5 -76.5q-5 -8 -5 -15q0 -5 4 -15q96 77 96 184zM26 400q3 -2 5 -2t10 5q29 21 46 65.5t17 91.5q0 52 -22 83q-9 13 -23.5 22.5t-26.5 9.5q-10 0 -15 -9q53 -63 53 -132
q0 -55 -36 -100q-5 -7 -8.5 -16t-5.5 -15q3 -1 6 -3z" />
    <glyph glyph-name="endash" unicode="&#x2013;" horiz-adv-x="570" 
d="M350 251q66 0 88 -1q13 0 28 -0.5t32 0.5q19 1 28.5 5.5t9.5 10.5q0 7 -9 7q-157 8 -221 8q-57 -1 -130.5 -4.5t-119.5 -7.5q-10 0 -16.5 -5t-6.5 -11q0 -4 4 -7t10 -3q219 8 303 8z" />
    <glyph glyph-name="emdash" unicode="&#x2014;" horiz-adv-x="719" 
d="M475 248l169 2q19 1 29 5.5t10 10.5q0 2 -3 4.5t-7 2.5q-42 2 -191 2q-131 0 -264 -1.5t-162 -4.5q-10 0 -16.5 -5t-6.5 -11q0 -4 4 -7t10 -3q73 3 428 5z" />
    <glyph glyph-name="quoteleft" unicode="&#x2018;" horiz-adv-x="96" 
d="M52.5 433.5q16.5 26.5 27.5 68.5t11 79q0 34 -11 54q-12 19 -51 45q-3 3 -10 3q-10 0 -19 -6q-5 -3 1 -9.5t22 -21.5q23 -21 27 -28q13 -21 13 -48q0 -15 -4 -33t-9 -35l-29 -91q15 -4 31.5 22.5z" />
    <glyph glyph-name="quoteright" unicode="&#x2019;" horiz-adv-x="96" 
d="M52.5 433.5q16.5 26.5 27.5 68.5t11 79q0 34 -11 54q-12 19 -51 45q-3 3 -10 3q-10 0 -19 -6q-5 -3 1 -9.5t22 -21.5q23 -21 27 -28q13 -21 13 -48q0 -15 -4 -33t-9 -35l-29 -91q15 -4 31.5 22.5z" />
    <glyph glyph-name="quotesinglbase" unicode="&#x201a;" horiz-adv-x="96" 
d="M52.5 -110.5q16.5 26.5 27.5 68.5t11 79q0 34 -11 54q-12 19 -51 45q-3 3 -10 3q-10 0 -19 -6q-5 -3 1 -9.5t22 -21.5q23 -21 27 -28q13 -21 13 -48q0 -15 -4 -33t-9 -35l-29 -91q15 -4 31.5 22.5z" />
    <glyph glyph-name="quotedblleft" unicode="&#x201c;" horiz-adv-x="217" 
d="M218 566q0 51 -21 99q-6 14 -16 14q-12 0 -22 -17q28 -56 28 -103q0 -36 -15.5 -70.5t-48.5 -76.5q-5 -8 -5 -15q0 -5 4 -15q96 77 96 184zM26 400q3 -2 5 -2t10 5q29 21 46 65.5t17 91.5q0 52 -22 83q-9 13 -23.5 22.5t-26.5 9.5q-10 0 -15 -9q53 -63 53 -132
q0 -55 -36 -100q-5 -7 -8.5 -16t-5.5 -15q3 -1 6 -3z" />
    <glyph glyph-name="quotedblright" unicode="&#x201d;" horiz-adv-x="217" 
d="M218 566q0 51 -21 99q-6 14 -16 14q-12 0 -22 -17q28 -56 28 -103q0 -36 -15.5 -70.5t-48.5 -76.5q-5 -8 -5 -15q0 -5 4 -15q96 77 96 184zM26 400q3 -2 5 -2t10 5q29 21 46 65.5t17 91.5q0 52 -22 83q-9 13 -23.5 22.5t-26.5 9.5q-10 0 -15 -9q53 -63 53 -132
q0 -55 -36 -100q-5 -7 -8.5 -16t-5.5 -15q3 -1 6 -3z" />
    <glyph glyph-name="quotedblbase" unicode="&#x201e;" horiz-adv-x="217" 
d="M218 0q0 51 -21 99q-6 14 -16 14q-12 0 -22 -17q28 -56 28 -103q0 -36 -15.5 -70.5t-48.5 -76.5q-5 -8 -5 -15q0 -5 4 -15q96 77 96 184zM26 -166q3 -2 5 -2t10 5q29 21 46 65.5t17 91.5q0 52 -22 83q-9 13 -23.5 22.5t-26.5 9.5q-10 0 -15 -9q53 -63 53 -132
q0 -55 -36 -100q-5 -7 -8.5 -16t-5.5 -15q3 -1 6 -3z" />
    <glyph glyph-name="guilsinglleft" unicode="&#x2039;" horiz-adv-x="96" 
d="M52.5 433.5q16.5 26.5 27.5 68.5t11 79q0 34 -11 54q-12 19 -51 45q-3 3 -10 3q-10 0 -19 -6q-5 -3 1 -9.5t22 -21.5q23 -21 27 -28q13 -21 13 -48q0 -15 -4 -33t-9 -35l-29 -91q15 -4 31.5 22.5z" />
    <glyph glyph-name="guilsinglright" unicode="&#x203a;" horiz-adv-x="96" 
d="M52.5 433.5q16.5 26.5 27.5 68.5t11 79q0 34 -11 54q-12 19 -51 45q-3 3 -10 3q-10 0 -19 -6q-5 -3 1 -9.5t22 -21.5q23 -21 27 -28q13 -21 13 -48q0 -15 -4 -33t-9 -35l-29 -91q15 -4 31.5 22.5z" />
    <glyph glyph-name="uni20AA" unicode="&#x20aa;" horiz-adv-x="535" 
d="M120 61.5q3 3.5 3 8.5q0 2 -4 22q-2 9 -23 102q-21 99 -37 153q-2 5 -5.5 17.5t-3.5 18.5q0 11 10 16.5t43 15.5q66 19 113 19q32 0 59.5 -6.5t63.5 -20.5q10 -4 13 -8.5t1 -14.5q-7 -32 -8 -62q-12 -142 -12 -188q0 -14 1 -16q18 0 21 16q8 73 8 129q0 34 2.5 58.5
t12.5 66.5q3 12 3 19q0 9 -5.5 13t-23.5 11q-20 8 -61.5 16t-78.5 7q-59 -2 -88 -7.5t-79 -25.5q-26 -10 -26 -33q0 -6 1 -10l24 -98q26 -108 37 -148q5 -22 19 -54l9 -22q8 2 11 5.5zM187 195q-5 -43 -5 -78q0 -54 14 -102q5 -14 13.5 -20.5t22.5 -7.5q94 0 143.5 9.5
t101.5 33.5q15 7 23.5 20t8.5 30q0 8 -1 12l-3 21q-1 7 -2 17.5t-4 24.5q-5 23 -11.5 62.5t-9.5 57.5l-8 50q-3 15 -12.5 18.5t-16.5 0.5q21 -135 40 -233q4 -20 4 -27q0 -16 -8.5 -26t-27.5 -17q-45 -17 -79.5 -23.5t-111.5 -9.5q-22 -1 -31.5 9t-14.5 31q-7 32 -7 82
q0 61 11 110q7 26 7 41q0 28 -17 28q-12 -56 -19 -114z" />
    <glyph glyph-name="Euro" unicode="&#x20ac;" horiz-adv-x="498" 
d="M146 42.5q43 -41.5 109 -41.5q135 2 228 67q5 3 9 9.5t4 12.5t-4 10q-20 -16 -31 -23q-73 -44 -184 -53l-14 -1q-57 0 -95 40.5t-52 101.5q85 9 112 13q80 8 118 13q17 2 46 10q6 1 23 5q0 8 -4.5 10t-14.5 1l-122 -13q-8 -1 -43 -3q-17 -1 -59.5 -4t-63.5 -6q1 38 8 61
q124 18 188 18q38 0 65 -4l7 -1q2 0 10 2v9q0 7 -4.5 11t-20.5 4q-25 0 -163 -10l-82 -7q19 102 105 156q58 34 104 34q41 0 78 -24q7 -7 16 -7q5 0 9 3q-12 23 -38.5 37.5t-55.5 14.5q-6 0 -18 -2q-184 -35 -221 -194q-3 -12 -8.5 -16.5t-18.5 -6.5q-23 -2 -74 -14
q-8 -3 -13 -6.5t-2 -13.5q11 -1 31 2t42 7l31 6v-34q0 -19 -4 -23t-18 -5.5t-24 -3.5q-18 -4 -24.5 -9.5t-6.5 -18.5q2 -1 10 -1q14 0 38.5 3t30.5 4q18 -78 61 -119.5z" />
    <glyph glyph-name="minus" unicode="&#x2212;" horiz-adv-x="311" 
d="M172 257q16 0 25 -1q9 0 28.5 -0.5t34.5 0.5q19 1 28.5 6.5t9.5 12.5q0 9 -9 9l-88 6l-34 2q-26 2 -60 -1t-42 -4l-29 -3q-10 0 -16.5 -6.5t-6.5 -13.5q0 -5 3.5 -8t10.5 -3q84 4 145 4z" />
    </font>
</defs>
</svg>
