<svg xmlns="http://www.w3.org/2000/svg">
<defs>
<font id="Nehama" horiz-adv-x="327" >
  <font-face 
    font-family="Nehama"
    font-weight="400"
    font-stretch="normal"
    units-per-em="1000"
    panose-1="0 0 4 0 0 0 0 0 0 0"
    ascent="800"
    descent="-200"
    bbox="23 -200.25 681.286 700"
    underline-thickness="50"
    underline-position="-208"
    unicode-range="U+0020-20AA"
  />
<missing-glyph horiz-adv-x="701" 
d="M600 661q-5 0 -9 -5q-4 -4 -4 -9t4 -10q4 -3 10 -3h49q-7 -24 -9 -65q-1 -5 2 -9q5 -4 10 -5q5 0 9 3q5 4 5 9q3 49 13 75q3 7 -1 13t-11 6h-68zM588 611q-4 -3 -5 -8q-1 -12 -3 -34q0 -5 4 -9t9 -5q5 0 9 3q5 4 5 9q1 21 2 33q2 6 -2 10q-4 5 -10 5q-5 0 -9 -4zM548 661
q-4 0 -9 -1q-1 -1 -2 -1q-20 -6 -36 -22q-2 8 -5 16t-12 8q-7 0 -11 -6t-1 -13q5 -13 9 -29q-12 -17 -22 -39q-3 -5 -1 -10q2 -6 7 -8t10 0q6 2 8 8q25 57 62 70h4v-5q-9 -43 -9 -47h-7v0v0h-18q-6 0 -10 -4t-4 -9t4 -10q4 -3 10 -3h17h4v0h1h17q5 0 9 5q4 4 4 10q-2 8 7 53
q4 18 -4 27q-5 7 -14 10h-6h-2zM541 557q0 1 -1 0l2 2q-1 -1 -1 -2zM375 660q-5 0 -10 -4q-3 -4 -3 -9t4 -10q4 -3 10 -3h49q-7 -24 -10 -65q0 -5 3 -9q5 -4 10 -5q5 0 9 3q4 4 4 9q4 49 14 75q3 7 -1 13t-11 6zM373 606q-3 -4 -4 -9l-11 -101q0 -6 4 -10q3 -4 8 -5
q6 0 10 4q4 3 5 8l10 101q1 6 -3 11q-3 4 -10 4q-5 0 -9 -3zM277 691q-6 -15 -9 -33q-8 -7 -5 -16q3 -8 13 -8h47q-6 -23 -9 -65q0 -5 4 -9q3 -4 8 -5q5 0 10 3q4 4 4 9q4 46 12 70q8 6 4 15q-2 9 -12 9h-2h-3h-44q3 10 7 21q3 6 -2 12q-3 6 -11 6t-12 -9zM213 661l-37 -1
q-6 0 -10 -4t-4 -9q1 -5 4 -10q5 -3 10 -3h21q-6 -23 -9 -65q0 -5 4 -9q3 -4 8 -5q6 0 10 3q4 4 5 9q3 44 11 67h18q5 0 8 4q5 4 5 10q0 5 -5 9q-3 4 -9 4h-24h-3h-3zM80 660h-4q-10 0 -13 -9q-2 -3 0 -8q1 -3 4 -6q-6 -22 -9 -56h-9q-5 0 -9 -4q-4 -3 -4 -9q0 -5 4 -9t9 -4
q8 0 13 1h7h3h1q8 0 12 7q3 7 -1 14q3 35 9 57h32q-6 -24 -9 -65q-1 -5 3 -9q3 -4 9 -4q5 -1 9 3t5 9q3 49 13 74q3 7 -1 13t-11 6l-54 -1q-2 1 -5 1q-2 0 -4 -1zM392 416q-11 -28 -14 -71h-18q-5 0 -9 -4t-4 -9t4 -9t9 -4q21 0 42 1h39q5 -1 9 2q4 4 5 10q4 48 14 74

<glyph glyph-name=".notdef" horiz-adv-x="701" 
d="M600 661q-5 0 -9 -5q-4 -4 -4 -9t4 -10q4 -3 10 -3h49q-7 -24 -9 -65q-1 -5 2 -9q5 -4 10 -5q5 0 9 3q5 4 5 9q3 49 13 75q3 7 -1 13t-11 6h-68zM588 611q-4 -3 -5 -8q-1 -12 -3 -34q0 -5 4 -9t9 -5q5 0 9 3q5 4 5 9q1 21 2 33q2 6 -2 10q-4 5 -10 5q-5 0 -9 -4zM548 661
q-4 0 -9 -1q-1 -1 -2 -1q-20 -6 -36 -22q-2 8 -5 16t-12 8q-7 0 -11 -6t-1 -13q5 -13 9 -29q-12 -17 -22 -39q-3 -5 -1 -10q2 -6 7 -8t10 0q6 2 8 8q25 57 62 70h4v-5q-9 -43 -9 -47h-7v0v0h-18q-6 0 -10 -4t-4 -9t4 -10q4 -3 10 -3h17h4v0h1h17q5 0 9 5q4 4 4 10q-2 8 7 53
q4 18 -4 27q-5 7 -14 10h-6h-2zM541 557q0 1 -1 0l2 2q-1 -1 -1 -2zM375 660q-5 0 -10 -4q-3 -4 -3 -9t4 -10q4 -3 10 -3h49q-7 -24 -10 -65q0 -5 3 -9q5 -4 10 -5q5 0 9 3q4 4 4 9q4 49 14 75q3 7 -1 13t-11 6zM373 606q-3 -4 -4 -9l-11 -101q0 -6 4 -10q3 -4 8 -5
q6 0 10 4q4 3 5 8l10 101q1 6 -3 11q-3 4 -10 4q-5 0 -9 -3zM277 691q-6 -15 -9 -33q-8 -7 -5 -16q3 -8 13 -8h47q-6 -23 -9 -65q0 -5 4 -9q3 -4 8 -5q5 0 10 3q4 4 4 9q4 46 12 70q8 6 4 15q-2 9 -12 9h-2h-3h-44q3 10 7 21q3 6 -2 12q-3 6 -11 6t-12 -9zM213 661l-37 -1
q-6 0 -10 -4t-4 -9q1 -5 4 -10q5 -3 10 -3h21q-6 -23 -9 -65q0 -5 4 -9q3 -4 8 -5q6 0 10 3q4 4 5 9q3 44 11 67h18q5 0 8 4q5 4 5 10q0 5 -5 9q-3 4 -9 4h-24h-3h-3zM80 660h-4q-10 0 -13 -9q-2 -3 0 -8q1 -3 4 -6q-6 -22 -9 -56h-9q-5 0 -9 -4q-4 -3 -4 -9q0 -5 4 -9t9 -4
q8 0 13 1h7h3h1q8 0 12 7q3 7 -1 14q3 35 9 57h32q-6 -24 -9 -65q-1 -5 3 -9q3 -4 9 -4q5 -1 9 3t5 9q3 49 13 74q3 7 -1 13t-11 6l-54 -1q-2 1 -5 1q-2 0 -4 -1zM392 416q-11 -28 -14 -71h-18q-5 0 -9 -4t-4 -9t4 -9t9 -4q21 0 42 1h39q5 -1 9 2q4 4 5 10q4 48 14 74
q3 7 -1 13q-5 6 -11 6q-9 0 -13 -9q-11 -28 -14 -70h-26q3 37 13 60q2 7 -2 13t-11 6q-9 0 -12 -9zM263 455q-6 -15 -10 -34q-7 -6 -4 -15q3 -8 12 -8h48q-7 -23 -9 -65q0 -5 3 -10q4 -3 9 -4q5 0 9 3q5 4 5 9q3 46 12 70q7 6 4 15t-12 9h-3h-2h-44q3 10 6 21q3 6 0 12
q-5 6 -12 6q-9 0 -12 -9zM622 186q-4 -3 -5 -8q-3 -16 -20 -34q-14 17 -22 37q-3 8 -12 8q-7 0 -11 -6q-3 -6 -1 -13q6 -10 12 -21q-22 -30 -22 -53q0 -5 3 -9q5 -4 9 -4q6 0 9 3q4 5 4 10q0 13 12 30q18 -21 42 -39q4 -3 9 -2t9 5q3 4 2 9q-1 6 -5 8q-12 9 -21 18
q23 25 28 48q1 6 -3 11t-10 5q-4 0 -7 -3zM509 180q-11 -28 -15 -70h-11q-12 0 -21 -1q-5 0 -9 -4t-4 -9t5 -10q3 -3 8 -3q29 1 42 1h2q5 0 9 3q4 4 5 9q3 48 13 74q3 7 -1 13t-12 6t-11 -9zM369 188q-5 0 -9 -4t-4 -9t4 -10q4 -3 9 -3h50q-3 -9 -4 -17h-50q-5 0 -9 -4
q-4 -3 -4 -8l-5 -36q0 -6 3 -10q4 -4 9 -4q6 0 9 3q5 4 5 10t3 22h35q-1 -8 -1 -21q-1 -5 2 -9q4 -4 10 -5q5 0 9 3q4 4 5 9q1 22 3 34v2q3 22 10 39q3 7 -1 13t-11 6zM263 219q-6 -15 -11 -34q-7 -6 -3 -15q3 -8 12 -8h48q-7 -23 -9 -65q-1 -6 2 -10q5 -3 10 -4t9 3
q5 4 5 9q3 46 11 70q8 6 5 15t-13 9h-2h-2h-44q3 10 6 21q3 6 -1 12t-11 6q-9 0 -12 -9zM218 186q-3 -3 -5 -7q-7 -19 -11 -41q-1 -6 3 -11q3 -5 8 -7q6 0 11 3q5 4 6 10q4 19 10 35q3 7 -1 14q-5 7 -13 7q-4 -1 -8 -3zM120 188h-5q-9 0 -12 -9q-2 -4 0 -8q0 -3 4 -6
q-7 -22 -9 -56h-9q-5 0 -10 -4q-3 -4 -3 -9t3 -9q5 -4 10 -4q8 0 13 1h6h3h2q8 0 11 7q4 7 0 14q2 35 9 57h32q-7 -24 -10 -65q0 -5 3 -9q4 -4 9 -4q5 -1 9 3q5 3 6 9q2 48 13 74q2 7 -1 13q-5 6 -12 6l-53 -1q-3 1 -5 1q-3 0 -4 -1z" />
    <glyph glyph-name=".null" horiz-adv-x="0" 
 />
    <glyph glyph-name="nonmarkingreturn" horiz-adv-x="206" 
 />
    <glyph glyph-name="space" unicode=" " horiz-adv-x="206" 
 />
    <glyph glyph-name="exclam" unicode="!" horiz-adv-x="230" 
d="M109 456q-32 -80 -46 -180q-3 -19 10 -37q13 -17 33 -20q19 -3 36 10q18 13 20 33q13 89 41 157q10 26 -6 48q-15 23 -43 22q-33 -1 -45 -33zM88 186q-4 0 -10 -3q-1 0 -4 -1t-4 -2q-2 -1 -1 -1q-3 -1 -5 -2q0 -1 -1 -1t-2 -1l-1 -1q-13 -9 -19 -25q-5 -16 0 -31
q5 -16 19 -26q14 -9 30 -9h8q4 1 6 1q12 2 23 10l1 1l1 2v0q13 10 16 26q5 16 0 30q-6 15 -19 24q-14 9 -29 9h-9z" />
    <glyph glyph-name="quotedbl" unicode="&#x22;" 
d="M91 595q-12 -9 -17 -23q-21 -51 -34 -108q-4 -20 8 -38q11 -17 30 -22q19 -4 37 7q18 12 22 31q11 51 29 93q10 26 -5 48q-16 22 -43 21q-15 -1 -27 -9zM224 595q-13 -9 -18 -23q-20 -51 -33 -108q-5 -20 7 -38q12 -17 30 -22q20 -4 38 7q18 12 22 31q11 51 28 93
q11 26 -5 48q-15 22 -42 21q-14 -1 -27 -9z" />
    <glyph glyph-name="numbersign" unicode="#" horiz-adv-x="439" 
d="M137 456q-8 -22 -16 -48h-8q-18 -1 -33 -13q-14 -12 -17 -30q-3 -17 7 -34q9 -17 27 -22q-5 -23 -8 -50h-2q-18 0 -34 -14q-14 -14 -16 -33q-1 -18 11 -34q13 -16 31 -19q-1 -20 -1 -22q-1 -20 13 -36q15 -17 34 -18q20 -2 36 13q17 14 18 34q2 25 2 29l67 1q0 -3 -1 -11
v-12q-2 -20 13 -36q13 -17 34 -18q19 -2 36 13q16 14 17 34q1 10 2 31h6q19 -1 34 14q16 14 17 34q1 19 -12 35q-14 15 -34 18q4 24 8 47q17 0 30 11q14 10 18 26t-2 32t-20 25q4 10 6 16q11 25 -5 48t-43 22q-34 -1 -46 -33q-9 -22 -17 -47h-61q3 8 3 10q11 25 -5 48
t-43 22q-33 -1 -46 -33zM258 261l-66 -1q3 28 8 47l66 1q-6 -29 -8 -47z" />
    <glyph glyph-name="dollar" unicode="$" horiz-adv-x="406" 
d="M200 626q-15 -14 -16 -31l-8 -107q-56 -9 -88 -45q-44 -48 -24 -106q15 -44 75 -72q9 -4 19 -8l-6 -68q-8 3 -18 10q-10 20 -32 26q-22 5 -40 -8q-26 -18 -21 -49q2 -13 9 -24q7 -9 18 -18q19 -16 47 -28q14 -7 30 -11l-10 -114q-1 -19 12 -35q14 -16 33 -17q20 -2 36 12
q15 14 17 33l9 115q10 3 22 6q54 18 78 54q26 37 15 84q-10 38 -38 63q-21 19 -58 34l5 56q20 -11 31 -26q11 -17 32 -21q20 -3 38 10q17 13 19 34t-12 36q-36 48 -101 69l8 107q3 22 -13 38q-15 16 -37 15q-18 0 -31 -14zM166 362l-10 8q0 2 5 7q2 3 7 6zM254 215
q6 -5 8 -13q1 -4 0 -6q-3 -4 -12 -8l2 28q3 -1 2 -1z" />
    <glyph glyph-name="percent" unicode="%" horiz-adv-x="472" 
d="M330 488q-27 -2 -41 -26l-176 -300q-12 -18 -7 -39q5 -22 24 -33t40 -5t32 25l176 300q16 26 2 52q-15 26 -44 27q-3 0 -6 -1zM89 453q-4 0 -10 -2q-2 0 -5 -2q-3 -1 -4 -2t-2 -1q-2 0 -4 -2l-1 -1h-2l-1 -1t-1 -2q-13 -9 -18 -26q-5 -16 0 -31q5 -16 20 -25
q13 -10 29 -10h9q3 0 7 1q12 2 23 10v1l2 2v0q12 10 17 26q5 17 -1 31q-5 16 -20 25q-14 9 -29 9h-9zM391 262q-5 -1 -10 -3q-1 0 -4 -2q-3 -1 -4 -2q-2 -1 -3 -1q-2 0 -3 -2h-2q0 -1 -2 -1v-1q-1 -1 -2 -1q-12 -10 -17 -26t0 -32t19 -25q13 -10 30 -10h9q3 1 6 1
q12 2 23 10l1 1l1 2v0q13 11 17 26q4 17 -1 32t-19 24q-14 10 -30 10h-9z" />
    <glyph glyph-name="ampersand" unicode="&#x26;" horiz-adv-x="421" 
d="M169 396q-9 -8 -11 -21q0 -15 8 -24q8 -10 23 -10q13 0 22 10q10 10 11 23q1 14 -8 23t-22 9t-23 -10zM149 248q-15 -13 -16 -32q-1 -21 11 -35q12 -13 32 -13q21 0 35 13q14 14 15 35q2 18 -11 32t-32 14q-20 0 -34 -14zM309 268q8 -21 6 -51q-5 -57 -46 -96
q-42 -38 -101 -38t-95 38q-37 39 -33 96q2 29 13 51q11 23 36 46q-20 28 -18 62q4 49 39 81t85 32q51 0 81 -32q32 -32 28 -81q-2 -33 -25 -62q22 -25 30 -46zM355 333h4q12 0 23 -8t15 -19q5 -12 2 -25q-2 -13 -10 -22l-26 -27l12 -14q13 -13 13 -31q0 -19 -14 -32
q-14 -12 -32 -11q-19 0 -31 15l-9 10q-13 -9 -29 -7q-17 3 -27 13q-10 12 -12 28q0 17 8 29l-9 9q-9 10 -11 22q-3 13 2 25q5 11 15 19q11 8 23 9q21 1 35 -15l5 -5l22 24q12 13 31 13z" />
    <glyph glyph-name="quotesingle" unicode="'" horiz-adv-x="194" 
d="M91 595q-12 -9 -17 -23q-21 -51 -34 -108q-4 -20 8 -38q11 -17 30 -22q19 -4 37 7q18 12 22 31q11 51 29 93q10 26 -5 48q-16 22 -43 21q-15 -1 -27 -9z" />
    <glyph glyph-name="parenleft" unicode="(" horiz-adv-x="245" 
d="M140 560q-92 -144 -97 -272q-7 -148 100 -280q11 -14 29 -16t32 9q14 12 16 30q1 18 -10 32q-86 106 -81 221q4 105 84 230q14 22 1 44q-13 24 -40 22q-22 -1 -34 -20z" />
    <glyph glyph-name="parenright" unicode=")" horiz-adv-x="245" 
d="M89 580q-27 2 -40 -22q-13 -22 1 -44q80 -125 84 -230q6 -115 -81 -221q-11 -14 -10 -32q2 -18 16 -30q14 -11 32 -9t29 16q107 132 101 280q-6 128 -98 272q-12 19 -34 20z" />
    <glyph glyph-name="asterisk" unicode="*" horiz-adv-x="435" 
d="M331 433l-102 -82l-74 75q-15 15 -36 16q-15 0 -29 -9q-13 -9 -19 -23q-5 -14 -2 -30q3 -15 14 -26l65 -66l-89 -71q-17 -13 -20 -34q-3 -22 11 -39q13 -17 35 -19q21 -2 38 12l98 78l78 -79q15 -16 36 -16t36 15t15 36t-15 36l-71 72l94 75q13 9 18 26q5 16 0 31
q-6 15 -20 24q-14 10 -29 10q-18 -1 -32 -12z" />
    <glyph glyph-name="plus" unicode="+" horiz-adv-x="376" 
d="M170 446q-15 -15 -17 -34l-7 -77h-59q-20 0 -35 -16q-16 -16 -16 -36q1 -21 17 -37q16 -15 36 -15l47 1l-6 -62q-2 -20 12 -37q14 -18 34 -20q21 -1 38 13q17 15 19 35l7 72l64 1q22 -1 38 15q16 15 16 37q0 23 -16 38q-17 15 -40 14l-52 -1l6 66q3 23 -13 40
q-16 18 -39 17q-19 0 -34 -14z" />
    <glyph glyph-name="comma" unicode="," horiz-adv-x="192" 
d="M73 145q-20 -51 -33 -108q-4 -19 8 -37q10 -18 29 -21q19 -5 37 7q18 11 22 29q11 50 28 93q10 25 -5 47q-15 23 -42 21q-32 -1 -44 -31z" />
    <glyph glyph-name="hyphen" unicode="-" horiz-adv-x="376" 
d="M302 334l-215 -3q-20 0 -35 -16q-16 -16 -16 -36q1 -21 17 -36t36 -15l215 2q20 0 36 15t17 35q0 21 -15 37q-16 16 -36 17h-4z" />
    <glyph glyph-name="hyphen" unicode="&#x2010;" horiz-adv-x="376" 
d="M302 334l-215 -3q-20 0 -35 -16q-16 -16 -16 -36q1 -21 17 -36t36 -15l215 2q20 0 36 15t17 35q0 21 -15 37q-16 16 -36 17h-4z" />
    <glyph glyph-name="period" unicode="." horiz-adv-x="168" 
d="M88 186q-6 -1 -11 -3l-3 -1q-3 -2 -4 -2h-1q-3 -2 -5 -3q0 -1 -1 -1q-1 -1 -2 -1v0l-1 -1q-13 -9 -19 -25q-5 -16 0 -31q5 -16 19 -26q14 -9 30 -9h8q3 1 6 1q12 2 23 10v1l2 2v0q12 10 16 26q5 16 0 30q-6 15 -19 24q-14 9 -30 9h-8z" />
    <glyph glyph-name="slash" unicode="/" horiz-adv-x="367" 
d="M279 501q34 3 51 -25q18 -29 0 -58l-188 -318q-10 -20 -33 -27q-22 -6 -42 6t-25 34q-6 23 6 42l188 319q14 25 43 27z" />
    <glyph glyph-name="zero" unicode="0" horiz-adv-x="386" 
d="M116 432q-31 -41 -56 -129q-24 -86 18 -153q40 -63 107 -67q62 -4 112 35q59 47 66 131q5 84 -16 146q-15 39 -39 62q-31 30 -74 32q-73 4 -118 -57zM239 386q8 -8 15 -24q15 -42 10 -107q-3 -40 -27 -59q-21 -16 -46 -15q-19 2 -31 21q-19 26 -5 74q20 70 39 96
q10 13 15 16q7 3 20 3q6 0 10 -5z" />
    <glyph glyph-name="one" unicode="1" horiz-adv-x="290" 
d="M182 477l-124 -102q-17 -13 -19 -35q-3 -22 11 -39q14 -16 35 -18q22 -1 38 13l2 2q-10 -62 -17 -161q-2 -20 13 -36q14 -17 34 -18q20 -2 36 13q17 14 18 34q12 189 52 289q11 26 -6 48q-16 23 -43 21q-17 0 -30 -11z" />
    <glyph glyph-name="two" unicode="2" horiz-adv-x="370" 
d="M116 461q-51 -36 -59 -102q-3 -19 10 -36q13 -16 32 -19q20 -2 35 11q17 14 19 33q2 23 19 35q16 11 38 9q5 0 16 -7t15 -14q6 -9 5 -14q-1 -8 -16 -24q-25 -26 -85 -82q-55 -49 -89 -89q-20 -23 -6 -52q13 -28 45 -27l206 7q20 -1 35 15q16 15 15 34q-1 21 -17 35
q-15 14 -36 12l-85 -3q59 53 88 84q31 34 37 79q6 41 -13 73q-36 63 -107 69q-13 2 -26 0q-42 -3 -76 -27z" />
    <glyph glyph-name="three" unicode="3" horiz-adv-x="373" 
d="M90 486q-19 0 -34 -15q-16 -16 -15 -36q0 -19 15 -34q16 -15 36 -15l97 2l-49 -66q-19 -23 -7 -50t41 -29q45 -5 61 -13q4 -2 10 -10q-1 2 -1 -3q1 -7 0 -11q-5 -12 -19 -18q-26 -10 -51 -2q-27 9 -41 34q-10 18 -30 23q-21 6 -39 -5q-17 -10 -23 -30q-5 -20 6 -38
q32 -57 94 -78q61 -20 119 2q61 24 79 83q16 52 -8 93q-20 34 -50 50q-3 0 -8 2t-7 3l65 83q19 25 5 53t-45 27z" />
    <glyph glyph-name="four" unicode="4" horiz-adv-x="379" 
d="M82 477q-13 -12 -16 -29l-26 -126q-4 -22 10 -40q15 -18 38 -19l122 -3q-6 -45 -11 -121q-3 -21 11 -37q13 -18 35 -19q21 -2 37 14q16 14 16 36q13 186 53 286q10 24 -5 48q-16 22 -44 21q-33 -1 -44 -32q-19 -46 -31 -96l-77 2l13 66q5 24 -10 43t-40 18q-16 0 -31 -12
z" />
    <glyph glyph-name="five" unicode="5" horiz-adv-x="383" 
d="M121 486q-18 0 -31 -12q-15 -13 -17 -30l-17 -124q-3 -19 10 -36q12 -17 31 -19l131 -19q15 -2 18 -18q4 -18 -22 -39q-19 -9 -66 -6q-32 3 -58 8q-21 5 -38 -6q-17 -12 -22 -31q-4 -21 8 -38q10 -17 31 -21q33 -7 72 -9q88 -6 130 24q37 27 53 65t8 75q-8 36 -35 62
q-28 25 -65 31l-82 12l4 33l151 3q19 0 34 15q16 15 15 34q0 19 -15 34t-35 15z" />
    <glyph glyph-name="six" unicode="6" horiz-adv-x="351" 
d="M251 487q-48 -13 -100 -49q-102 -73 -114 -186v-3q-1 -8 -1 -18q0 -61 43 -105q44 -43 105 -43t105 43q44 44 44 105q0 47 -28 86q-26 37 -69 53q24 14 43 20q18 5 29 21q10 16 7 35q-2 18 -18 31q-15 13 -33 12q-6 0 -13 -2zM218 265q13 -14 13 -34t-13 -33
q-13 -14 -34 -14q-20 0 -34 14q-13 13 -13 33v5v0q0 3 1 5v1q4 16 16 26l4 2q12 8 26 8q21 0 34 -13z" />
    <glyph glyph-name="seven" unicode="7" horiz-adv-x="385" 
d="M285 488l-199 -2q-20 0 -35 -16q-15 -15 -15 -35q1 -20 16 -35q16 -15 35 -15l137 2q-8 -31 -16 -69l-54 -1q-20 0 -35 -16q-15 -15 -14 -35q0 -20 16 -35q15 -14 34 -14h40q-3 -26 -6 -77q-3 -22 11 -38q13 -18 35 -19q22 -2 38 14q16 14 16 36q3 51 7 86l16 1
q19 0 35 15q15 16 14 35q0 20 -15 34q-15 16 -35 16q8 37 20 70q16 6 26 22q11 16 8 34q-2 18 -18 30q-15 13 -32 12h-12q-5 1 -10 1q-4 0 -8 -1z" />
    <glyph glyph-name="eight" unicode="8" horiz-adv-x="335" 
d="M309 268q8 -21 6 -51q-5 -57 -46 -96q-42 -38 -101 -38t-95 38q-37 39 -33 96q2 29 13 51q11 23 36 46q-20 28 -18 62q4 49 39 81t85 32q51 0 81 -32q32 -32 28 -81q-2 -33 -25 -62q22 -25 30 -46zM166 396q-10 -8 -11 -21q-1 -15 8 -24q8 -10 22 -10q13 0 23 10t10 23
q2 14 -7 23q-8 9 -22 9q-13 0 -23 -10zM146 248q-14 -13 -16 -32q-1 -21 11 -35q12 -13 33 -13q20 0 34 13q14 14 16 35q1 18 -12 32t-32 14t-34 -14z" />
    <glyph glyph-name="nine" unicode="9" horiz-adv-x="352" 
d="M177 490q-58 -2 -100 -46q-41 -43 -41 -103q0 -47 28 -85q26 -38 69 -54q-24 -13 -43 -19t-30 -25q-10 -19 -5 -38q6 -20 24 -30q20 -11 39 -5q49 14 100 50q103 72 114 186q1 3 1 4v1q1 7 1 15q0 62 -44 105q-44 44 -106 44h-7zM218 375q14 -13 14 -34v-4q-1 -2 -1 -6v0
q-3 -17 -16 -27t-31 -10q-19 0 -33 14t-14 33q0 21 14 34q14 14 33 14q21 0 34 -14z" />
    <glyph glyph-name="colon" unicode=":" horiz-adv-x="186" 
d="M108 397q-5 0 -10 -1l-3 -3q-4 -1 -5 -2q-3 0 -5 -3h-2t-1 -1h-1q0 -1 -1 -1q-12 -9 -17 -24q-5 -16 -1 -31q5 -14 18 -24q14 -9 29 -9h8q4 1 6 1q12 2 22 9q0 1 1 1q1 2 1 3v0q12 9 16 24q5 15 0 30q-6 14 -19 23t-28 9q-3 0 -8 -1zM87 183q-6 -1 -10 -2q-1 0 -4 -2
q-3 -1 -4 -2v0q-3 -2 -5 -3q-1 0 -2 -1h-2v-1h-1q-13 -10 -18 -25q-5 -16 0 -30q4 -15 18 -25q13 -9 29 -9h8q4 1 6 1q12 2 22 9q0 1 1 1q1 2 2 2v1q11 9 15 24q5 16 0 30t-19 23q-13 9 -28 9h-8z" />
    <glyph glyph-name="semicolon" unicode=";" horiz-adv-x="203" 
d="M133 396q-6 0 -8 -1q-5 0 -10 -2q-1 0 -4 -2q-3 -1 -4 -2q-1 0 -2 -1q-2 0 -4 -2h-1q-1 -1 -2 -1v-1q-1 -1 -2 -1q-11 -9 -17 -25q-5 -15 0 -30q6 -14 19 -24t29 -9h7q4 0 6 1q13 2 23 9v2q1 1 2 1v0q11 10 16 25q4 16 -1 30t-19 23q-13 10 -28 10v0zM73 145
q-20 -51 -33 -108q-4 -19 8 -37q10 -18 29 -21q19 -5 37 7q18 11 22 29q11 50 28 93q10 25 -5 47q-15 23 -42 21q-32 -1 -44 -31z" />
    <glyph glyph-name="less" unicode="&#x3c;" horiz-adv-x="332" 
d="M218 488l-168 -184q-14 -15 -13 -36q1 -22 17 -35l158 -137q15 -15 37 -13q21 1 35 17q13 16 12 37q-2 21 -18 35l-119 103l133 144q22 24 10 54q-13 30 -45 31q-23 1 -39 -16z" />
    <glyph glyph-name="equal" unicode="=" horiz-adv-x="389" 
d="M315 412l-215 -3q-20 0 -35 -16q-16 -16 -15 -36q0 -21 16 -36t36 -15l215 3q20 -1 36 14t17 36q0 21 -15 37q-15 15 -35 16h-5zM302 260l-214 -2q-21 0 -36 -16q-16 -16 -16 -36q1 -21 17 -36q16 -16 36 -16l215 3q20 0 36 15t17 36q0 20 -15 36q-16 16 -36 17
q-2 0 -4 -1z" />
    <glyph glyph-name="greater" unicode="&#x3e;" horiz-adv-x="332" 
d="M94 504q-33 -1 -46 -31q-12 -30 10 -54l133 -144l-118 -103q-17 -14 -18 -35q-2 -21 12 -37t35 -17q21 -2 37 13l157 137q16 13 17 35q1 21 -13 36l-168 184q-15 17 -38 16z" />
    <glyph glyph-name="question" unicode="?" horiz-adv-x="287" 
d="M62 466q-17 -10 -22 -30q-4 -19 6 -35q11 -17 30 -22q19 -4 36 6q21 13 30 13q4 0 11 -7q5 -4 9 -16q4 -11 4 -14q-1 -6 -16 -20q-39 -38 -45 -76q-4 -20 8 -37q11 -16 32 -19q20 -3 36 10q16 12 18 33q1 5 17 20q39 37 44 78q8 66 -44 112q-27 25 -69 27h-10
q-39 -1 -75 -23zM129 180q-5 0 -10 -2l-3 -2q-3 -1 -4 -2h-1v0q-3 -1 -5 -2q0 -1 -1 -1t-2 -1v0l-2 -2q-11 -8 -16 -24q-5 -15 0 -29t18 -23t27 -9h8q4 1 6 1q12 2 22 9v1l2 2v0q11 9 16 24q3 15 -2 29t-17 23q-13 9 -28 9q-5 0 -8 -1z" />
    <glyph glyph-name="at" unicode="@" horiz-adv-x="550" 
d="M151 474q-72 -54 -96 -137q-19 -62 -7 -119q14 -64 65 -109q62 -55 153 -52q15 0 25 11q11 12 10 26t-12 24q-11 11 -25 10q-63 -2 -104 34q-33 30 -41 71q-9 39 5 84q18 60 70 100q54 41 129 21q74 -19 103 -79q30 -63 15 -124q-5 -23 -16 -33q-2 -1 -4 -3q-9 16 -12 31
q-7 27 -10 69q-2 22 -2 23q-1 4 -1 6q-2 5 -3 7t-4 6q1 0 0 1q0 1 -1 2q-23 44 -63 58q-43 16 -91 -9q-51 -25 -71 -93q-21 -74 21 -116q39 -39 100 -33q37 3 68 22q12 -27 35 -42q6 -3 12 -4q44 -8 76 23q25 25 36 68q21 86 -21 173q-28 55 -82 90q-53 33 -116 36
q-79 3 -141 -43zM301 335q12 -5 22 -22q-1 -9 -6 -76q-20 -13 -39 -14q-28 -3 -43 12q-12 12 -3 45q11 38 34 50q12 5 21 7q7 1 14 -2z" />
    <glyph glyph-name="bracketleft" unicode="[" horiz-adv-x="295" 
d="M207 619q16 0 29 -12q12 -12 12 -28t-12 -28q-13 -13 -29 -13h-76q-9 -252 35 -507h70q16 0 28 -13q13 -12 13 -28t-13 -28q-12 -12 -28 -12h-104q-34 0 -40 33q-56 301 -42 598q1 15 14 27q12 11 27 11h116z" />
    <glyph glyph-name="backslash" unicode="\" horiz-adv-x="366" 
d="M148 474l187 -319q13 -19 7 -42q-5 -22 -25 -34t-43 -6q-22 7 -33 27l-188 318q-17 29 0 58q18 28 52 25q29 -2 43 -27z" />
    <glyph glyph-name="bracketright" unicode="]" horiz-adv-x="296" 
d="M222 619q15 0 28 -11q11 -12 12 -27q15 -297 -41 -598q-6 -33 -39 -33h-105q-16 0 -29 12q-12 12 -12 28t12 28q13 13 29 13h70q44 255 35 507h-76q-16 0 -29 13q-12 12 -12 28t12 28q13 12 29 12h116z" />
    <glyph glyph-name="asciicircum" unicode="^" horiz-adv-x="459" 
d="M190 553l-141 -171q-13 -16 -11 -37q2 -20 18 -33t36 -12q21 2 35 18l105 130l123 -123q15 -15 36 -15q20 0 35 15q15 14 15 35t-15 36l-162 161q-14 15 -36 15q-23 -1 -38 -19z" />
    <glyph glyph-name="underscore" unicode="_" horiz-adv-x="483" 
d="M410 116l-323 -2q-20 0 -35 -16q-16 -16 -16 -36q1 -21 17 -36q16 -16 36 -16l322 3q20 -1 36 14t17 36t-15 36q-16 16 -36 17h-3z" />
    <glyph glyph-name="grave" unicode="`" horiz-adv-x="149" 
 />
    <glyph glyph-name="braceleft" unicode="{" horiz-adv-x="336" 
d="M133 627q-15 0 -27 -11q-12 -12 -14 -27q-5 -97 -1 -204q-7 -4 -11 -7q-44 -32 -44 -93t50 -99q27 -20 22 -16v0q11 -90 26 -176q2 -14 13 -24q12 -10 26 -10h104q16 0 28 13q13 12 13 28t-13 28q-12 12 -28 12h-69q-14 87 -21 142q-3 27 -26 47q5 -4 -27 20
q-18 14 -18 35q0 20 12 29q25 19 22 16q23 20 21 48q-3 80 0 168h77q16 0 28 12q13 13 13 29t-13 28q-12 12 -28 12h-115z" />
    <glyph glyph-name="bar" unicode="|" horiz-adv-x="180" 
d="M50 653q-14 -16 -11 -39q22 -173 -1 -671q-1 -20 14 -36t35 -17q19 -1 35 14q16 14 18 35q22 505 -1 688q-2 18 -18 31q-15 14 -34 13q-23 0 -37 -18z" />
    <glyph glyph-name="braceright" unicode="}" horiz-adv-x="336" 
d="M106 627q-16 0 -29 -12q-12 -12 -12 -28t12 -29q13 -12 29 -12h76q3 -88 0 -168q0 -28 22 -48q-4 3 22 -16q11 -9 11 -29q0 -21 -18 -35q-31 -24 -26 -20q-23 -20 -26 -47q-6 -55 -21 -142h-69q-16 0 -29 -12q-12 -12 -12 -28t12 -28q13 -13 29 -13h104q14 0 25 10
q12 10 15 24q14 86 25 176v0q-4 -4 22 16q50 38 50 99t-45 93q-3 3 -10 7q4 107 -2 204q-1 15 -13 27q-12 11 -27 11h-115z" />
    <glyph glyph-name="asciitilde" unicode="~" horiz-adv-x="451" 
d="M395 240q-40 -38 -82 -38q-25 0 -81 38t-76 38q-33 0 -45 -34q0 -2 -10 -47l-65 21q22 123 117 123q34 0 67 -19q6 -3 60 -36q19 -12 30 -12q48 0 64 66l59 -21q-4 -47 -38 -79z" />
    <glyph glyph-name="macron" unicode="&#xaf;" horiz-adv-x="233" 
 />
    <glyph glyph-name="macron" unicode="&#x2c9;" horiz-adv-x="233" 
 />
    <glyph glyph-name="dotlessi" unicode="&#x131;" horiz-adv-x="127" 
d="M36 88v295h72v-295h-72z" />
    <glyph glyph-name="circumflex" unicode="&#x2c6;" horiz-adv-x="459" 
d="M190 553l-141 -171q-13 -16 -11 -37q2 -20 18 -33t36 -12q21 2 35 18l105 130l123 -123q15 -15 36 -15q20 0 35 15q15 14 15 35t-15 36l-162 161q-14 15 -36 15q-23 -1 -38 -19z" />
    <glyph glyph-name="caron" unicode="&#x2c7;" horiz-adv-x="459" 
d="M228 300q22 0 36 14l162 162q15 15 15 35q0 21 -15 36q-15 14 -35 14q-21 0 -36 -14l-123 -122l-105 128q-14 16 -35 19q-20 2 -36 -12q-16 -13 -18 -33q-2 -21 11 -37l141 -172q15 -17 38 -18z" />
    <glyph glyph-name="hungarumlaut" unicode="&#x2dd;" horiz-adv-x="250" 
 />
    <glyph glyph-name="maqaf" unicode="&#x5be;" horiz-adv-x="376" 
d="M302 334l-215 -3q-20 0 -35 -16q-16 -16 -16 -36q1 -21 17 -36t36 -15l215 2q20 0 36 15t17 35q0 21 -15 37q-16 16 -36 17h-4z" />
    <glyph glyph-name="sofpasuq" unicode="&#x5c3;" horiz-adv-x="186" 
d="M108 397q-5 0 -10 -1l-3 -3q-4 -1 -5 -2q-3 0 -5 -3h-2t-1 -1h-1q0 -1 -1 -1q-12 -9 -17 -24q-5 -16 -1 -31q5 -14 18 -24q14 -9 29 -9h8q4 1 6 1q12 2 22 9q0 1 1 1q1 2 1 3v0q12 9 16 24q5 15 0 30q-6 14 -19 23t-28 9q-3 0 -8 -1zM87 183q-6 -1 -10 -2q-1 0 -4 -2
q-3 -1 -4 -2v0q-3 -2 -5 -3q-1 0 -2 -1h-2v-1h-1q-13 -10 -18 -25q-5 -16 0 -30q4 -15 18 -25q13 -9 29 -9h8q4 1 6 1q12 2 22 9q0 1 1 1q1 2 2 2v1q11 9 15 24q5 16 0 30t-19 23q-13 9 -28 9h-8z" />
    <glyph glyph-name="alef" unicode="&#x5d0;" horiz-adv-x="447" 
d="M346 477q-14 -12 -18 -29q-12 -63 -76 -132q-51 65 -85 142q-12 31 -46 30q-26 0 -39 -23q-15 -22 -4 -46q19 -43 44 -85q-85 -111 -86 -202q0 -19 14 -34q16 -15 35 -15t34 14q15 15 15 34q0 51 48 119q65 -81 157 -150q16 -11 36 -9q20 3 32 19t9 37q-3 19 -19 31
q-43 33 -79 66q88 97 106 185q5 23 -10 41t-38 18q-17 0 -30 -11z" />
    <glyph glyph-name="bet" unicode="&#x5d1;" horiz-adv-x="466" 
d="M120 485q-20 0 -35 -15q-16 -15 -16 -35t16 -35q15 -15 36 -15l189 2q-23 -83 -33 -202q-113 -2 -190 -2q-20 1 -36 -15q-15 -15 -15 -35t15 -35q16 -15 36 -15q-16 0 234 2h7h69q20 0 35 15q16 15 16 36q0 20 -16 35q-15 15 -35 15h-19q12 142 48 233q10 25 -5 48
q-15 21 -42 21z" />
    <glyph glyph-name="gimel" unicode="&#x5d2;" horiz-adv-x="458" 
d="M123 486q-20 0 -36 -16q-15 -15 -15 -35t16 -35q15 -15 36 -15l190 2q-9 -33 -16 -67h-192q-19 0 -34 -13q-14 -13 -16 -31l-19 -140q-1 -21 13 -37q16 -15 35 -16q20 -1 36 14q16 14 17 34q1 26 11 88h135q-4 -36 -7 -81q-1 -20 13 -36q14 -17 34 -18t36 13t18 34
q6 81 12 129q1 2 1 5q13 86 40 154q9 25 -6 48q-15 21 -42 21z" />
    <glyph glyph-name="dalet" unicode="&#x5d3;" horiz-adv-x="417" 
d="M230 487l-143 -2q-20 0 -36 -15q-15 -16 -15 -36q1 -20 16 -35q16 -15 35 -15l85 1q-25 -89 -35 -248q-2 -20 13 -36q14 -17 34 -18q19 -2 36 13q17 14 17 34q12 166 42 256l69 1q20 0 36 15q15 16 15 36t-16 35q-15 15 -36 15l-92 -1q-6 2 -13 1q-6 0 -12 -1z" />
    <glyph glyph-name="he" unicode="&#x5d4;" horiz-adv-x="449" 
d="M113 486q-20 0 -36 -16q-15 -15 -15 -35q1 -21 16 -36q16 -15 36 -14l190 1q-26 -93 -36 -249q-2 -20 12 -36q14 -17 34 -18q20 -2 36 13q17 14 18 34q13 188 53 289q10 25 -5 48q-15 21 -43 21zM67 300q-15 -14 -17 -32q-7 -48 -13 -131q-1 -20 13 -36q14 -17 35 -18
q19 -2 36 13q16 14 17 34q6 80 12 124q3 23 -11 40q-15 18 -38 18q-19 1 -34 -12z" />
    <glyph glyph-name="vav" unicode="&#x5d5;" horiz-adv-x="220" 
d="M97 456q-46 -115 -60 -319q-1 -20 13 -36q14 -17 35 -18q19 -2 36 13q16 14 17 34q13 188 53 288q11 25 -5 49q-16 22 -44 21q-33 -1 -45 -32z" />
    <glyph glyph-name="zayin" unicode="&#x5d6;" horiz-adv-x="308" 
d="M164 486l-78 -1q-20 0 -35 -16t-15 -35q1 -20 16 -36q16 -14 35 -14h20q-25 -90 -36 -247q-1 -20 14 -36q13 -17 34 -18q19 -2 36 13q16 14 17 34q12 167 41 256h26q21 1 35 16q15 16 15 36t-16 34q-15 16 -35 16l-49 -1q-6 1 -13 1q-5 0 -12 -2z" />
    <glyph glyph-name="het" unicode="&#x5d7;" horiz-adv-x="444" 
d="M127 485h-18q-15 0 -29 -9q-13 -9 -19 -24q-5 -14 0 -30q4 -16 16 -26q-28 -94 -40 -259q-1 -20 13 -36q14 -17 35 -18q19 -2 36 13q16 14 17 34q12 165 41 255h121q-26 -93 -37 -248q-1 -20 13 -36q14 -17 34 -18q20 -2 37 13q16 14 17 34q13 189 53 288q9 25 -6 47
q-14 23 -42 23l-208 -3q-9 3 -19 3q-8 0 -15 -3z" />
    <glyph glyph-name="tet" unicode="&#x5d8;" horiz-adv-x="470" 
d="M106 456q-45 -113 -58 -301q-12 -25 3 -49q15 -23 43 -23q78 0 127 1q50 1 110 1v0q8 -1 16 1v0q25 2 38 23q14 21 5 44q12 169 51 266q11 25 -5 48q-16 22 -44 21q-3 0 -6 -1h-1q-12 1 -22 -5q-91 -42 -161 -162q-12 -18 -7 -39t24 -31q18 -11 39 -5t31 25q8 15 16 26
q-9 -50 -13 -110q-32 0 -71 -1q-39 -2 -70 -2q12 145 49 236q10 25 -5 48q-16 22 -44 21q-32 -1 -45 -32z" />
    <glyph glyph-name="yod" unicode="&#x5d9;" horiz-adv-x="217" 
d="M104 477q-14 -10 -19 -26q-29 -73 -45 -158q-4 -21 10 -41q13 -19 35 -24q21 -3 40 10q20 14 23 35q13 75 39 138q11 27 -6 52q-18 25 -47 24q-16 -1 -30 -10z" />
    <glyph glyph-name="kaffinal" unicode="&#x5da;" horiz-adv-x="425" 
d="M328 488l-241 -3q-21 0 -36 -16q-15 -15 -15 -35q1 -20 16 -35q16 -15 35 -14l193 1l-52 -527q-2 -19 12 -36t33 -19q20 -1 37 12q16 14 18 34l55 552q24 24 10 55q-13 31 -47 31h-4h-7h-7z" />
    <glyph glyph-name="kaf" unicode="&#x5db;" horiz-adv-x="475" 
d="M140 486q-19 0 -34 -16q-16 -15 -16 -35t16 -35q15 -15 36 -15l189 2q-23 -83 -33 -201q-14 0 -88 -2q-49 -1 -123 -1q-20 1 -35 -15q-16 -15 -16 -35t16 -35q15 -15 35 -15q78 0 136 1q64 1 112 1q10 -1 20 0h6q34 0 47 31t-10 55q12 155 49 248q10 25 -5 48
q-15 21 -42 21z" />
    <glyph glyph-name="lamed" unicode="&#x5dc;" horiz-adv-x="435" 
d="M102 605q-23 -60 -38 -130q-28 -22 -16 -56q13 -35 49 -34l182 2q-25 -90 -36 -250q-1 -20 13 -36.5t34 -18t36.5 13t17.5 34.5q12 175 45 268q28 22 16 56q-11 34 -47 34q-5 2 -10 1q-4 0 -7 -1l-170 -1q11 43 26 80q10 26 -5.5 49t-44.5 21q-33 0 -45 -32z" />
    <glyph glyph-name="memfinal" unicode="&#x5dd;" horiz-adv-x="524" 
d="M128 486q-16 0 -29 -9q-14 -10 -19 -24q-5 -15 -1 -31q5 -16 16 -26l-47 -239q-1 -2 -2 -5q-10 -24 5 -47t43 -22q77 0 153 1q80 1 139 1h1q7 -1 14 0h3q30 0 45 27q14 27 -3 52q12 160 50 255q10 25 -5 48q-16 21 -42 21zM347 186q-38 0 -95 -1q-59 -1 -97 -2l41 202
l183 2q-23 -82 -32 -201z" />
    <glyph glyph-name="mem" unicode="&#x5de;" horiz-adv-x="518" 
d="M388 488q-15 0 -33 -4l-8 -2q-76 -26 -139 -84q-8 29 -19 58q-13 32 -47 32q-26 0 -42 -22q-15 -23 -4 -47q20 -52 33 -114q-45 -64 -84 -150q-9 -19 -2 -39t27 -29t39 -1q20 8 28 29q97 219 239 271q8 1 15 1q0 -12 -2 -20q-31 -165 -31 -180h-13h-13q-1 -1 -2 -1h-2v0
h-2h-67q-20 0 -35 -16q-16 -15 -16 -34q0 -21 16 -36q15 -15 35 -14h69h13l3 1q3 0 3 1h63q22 0 37 17t13 39q-5 33 27 205q13 69 -12 104q-20 27 -56 33q-12 2 -24 2h-7zM359 91q1 2 -3 0q4 2 10 7z" />
    <glyph glyph-name="nunfinal" unicode="&#x5df;" horiz-adv-x="216" 
d="M111 474q-14 -13 -16 -31l-57 -581q-2 -20 12 -37t33 -18q20 -2 36 12q17 13 19 33l57 580q2 23 -13 40t-37 16q-18 0 -34 -14z" />
    <glyph glyph-name="nun" unicode="&#x5e0;" horiz-adv-x="387" 
d="M265 456q-43 -107 -56 -270h-42q-23 -1 -82 -3q-19 0 -35 -16q-14 -15 -13 -36q0 -19 16 -34t35 -14q113 3 160 2h5h1q19 -1 35 13t17 33q13 189 52 288q11 25 -5 48q-16 22 -43 21q-34 -1 -45 -32z" />
    <glyph glyph-name="samekh" unicode="&#x5e1;" horiz-adv-x="429" 
d="M94 486q-29 0 -44 -25q-14 -26 0 -51v-4l34 -278q2 -19 16 -32q16 -13 34 -13h127q16 0 30 10t19 25l91 295q2 5 2 11q7 24 -8 45q-16 20 -41 19zM224 183h-45l-24 202l133 2z" />
    <glyph glyph-name="ayin" unicode="&#x5e2;" horiz-adv-x="518" 
d="M195 456q-43 -107 -56 -272h-65q-20 0 -36 -15q-15 -15 -15 -36q0 -19 15 -34q16 -15 36 -15q78 0 157 1t149 1v0q22 -3 38 11q17 13 19 35q12 188 52 287q11 26 -5 48q-16 23 -43 22q-33 -1 -45 -33q-43 -107 -56 -270h-101q13 142 49 233q10 26 -5 48q-16 23 -44 22
q-33 -1 -44 -33z" />
    <glyph glyph-name="pefinal" unicode="&#x5e3;" horiz-adv-x="456" 
d="M365 488l-245 -3q-17 0 -32 -12q-14 -12 -17 -30v-1l-30 -141q-5 -21 8 -40q14 -18 36 -20l107 -11q19 -2 36 12t19 34t-12 36q-14 17 -34 18l-51 5l11 50l157 2l-52 -525q-2 -20 12 -36q14 -17 33 -19q20 -1 36 12q17 13 19 34l55 556q17 26 3 52q-14 27 -45 27h-1h-5
h-8z" />
    <glyph glyph-name="pe" unicode="&#x5e4;" horiz-adv-x="478" 
d="M142 487q-17 -1 -31 -13q-15 -12 -18 -29v-1l-1 -1l-29 -142q-5 -22 8 -40q14 -18 36 -20l107 -11q20 -2 37 12t19 34t-12 36q-14 17 -34 19l-50 4l10 51l150 2q-24 -84 -34 -202q-21 0 -89 -1q-51 -2 -124 -2q-20 1 -35 -14q-16 -16 -16 -36t16 -35q15 -15 35 -15
q78 0 137 1q64 1 114 1q9 -1 19 0h5q32 0 46 30t-8 54q12 156 50 251q10 25 -6 47q-15 22 -42 22z" />
    <glyph glyph-name="tsadifinal" unicode="&#x5e5;" horiz-adv-x="447" 
d="M344 475q-14 -14 -16 -32q-9 -80 -81 -135q-2 -1 -3 -3q-63 72 -107 151q-15 26 -45 25q-28 -1 -42 -25q-14 -25 0 -49q87 -155 248 -293l-26 -250q-2 -19 12 -35q13 -17 32 -19q20 -2 36 11q17 13 18 33l28 260q1 6 0 12q6 31 -20 49q-34 29 -65 58q100 81 113 199
q3 23 -11 40q-16 16 -38 16q-18 0 -33 -13z" />
    <glyph glyph-name="tsadi" unicode="&#x5e6;" horiz-adv-x="495" 
d="M391 475q-14 -14 -16 -32q-9 -81 -81 -136q-2 -1 -4 -3q-64 72 -108 152q-15 26 -45 26q-29 -1 -42 -26q-14 -25 0 -50q65 -115 172 -222q-86 -1 -180 -1q-20 0 -36 -15q-15 -16 -15 -35q0 -20 15 -35q16 -15 36 -15q77 0 156 1q80 1 151 1q16 0 29 9q13 10 18 24
q6 15 1 30q-4 16 -16 25q-35 29 -66 59q101 81 114 200q3 23 -12 40t-38 16q-18 0 -33 -13z" />
    <glyph glyph-name="qof" unicode="&#x5e7;" horiz-adv-x="437" 
d="M101 485q-19 0 -35 -15q-16 -16 -16 -35q1 -21 16 -36q16 -15 37 -14l189 1q-26 -93 -37 -249q-1 -19 13 -36q15 -16 34 -17q20 -2 37 13q16 13 17 34q13 187 53 288q10 25 -5 47t-42 22zM95 276q-14 -14 -16 -32l-41 -388q-2 -20 12 -37q14 -16 33 -19q20 -2 37 12
t19 33l40 388q3 23 -12 40t-38 17q-19 0 -34 -14z" />
    <glyph glyph-name="resh" unicode="&#x5e8;" horiz-adv-x="423" 
d="M87 486q-21 -1 -36 -16t-15 -35q1 -21 16 -36q16 -15 36 -14l190 1q-26 -93 -37 -249q-1 -20 13 -36q14 -17 34 -18q20 -2 36 13q17 14 18 34q13 188 53 289q10 25 -5 48q-16 21 -43 21z" />
    <glyph glyph-name="shin" unicode="&#x5e9;" horiz-adv-x="547" 
d="M51 488q-15 -16 -14 -38l21 -319q0 -24 19 -37q19 -15 42 -10h4q77 0 152 2h135h13h8q33 0 47 30q13 31 -9 54q12 155 49 249q11 25 -5 48q-15 22 -43 21q-33 -1 -44 -32q-43 -107 -56 -270h-66q-12 84 34 237q8 25 -7 46q-16 20 -42 19q-16 0 -29 -11q-13 -10 -18 -25
q-49 -166 -39 -267h-48l-18 271q0 18 -15 33q-14 14 -33 14q-23 1 -38 -15z" />
    <glyph glyph-name="tav" unicode="&#x5ea;" horiz-adv-x="521" 
d="M205 485h-18q-35 0 -47 -33q-6 -14 -1 -30q4 -16 16 -26q-26 -85 -36 -213h-32q-20 0 -36 -15q-15 -15 -15 -35t15 -35q16 -15 36 -15q30 0 48 1q9 1 26 1q6 -1 13 0h3q31 0 46 27q14 28 -5 53q11 136 38 220l121 1q-26 -93 -36 -247q-2 -20 12 -37q15 -16 34 -17
q20 -1 36 13t18 33q13 189 52 288q10 24 -5 47q-15 22 -42 22l-208 -3q-9 3 -17 3q-9 0 -16 -3z" />
    <glyph glyph-name="geresh" unicode="&#x5f3;" horiz-adv-x="194" 
d="M91 595q-12 -9 -17 -23q-21 -51 -34 -108q-4 -20 8 -38q11 -17 30 -22q19 -4 37 7q18 12 22 31q11 51 29 93q10 26 -5 48q-16 22 -43 21q-15 -1 -27 -9z" />
    <glyph glyph-name="gershayim" unicode="&#x5f4;" 
d="M91 595q-12 -9 -17 -23q-21 -51 -34 -108q-4 -20 8 -38q11 -17 30 -22q19 -4 37 7q18 12 22 31q11 51 29 93q10 26 -5 48q-16 22 -43 21q-15 -1 -27 -9zM224 595q-13 -9 -18 -23q-20 -51 -33 -108q-5 -20 7 -38q12 -17 30 -22q20 -4 38 7q18 12 22 31q11 51 28 93
q11 26 -5 48q-15 22 -42 21q-14 -1 -27 -9z" />
    <glyph glyph-name="quotesinglbase" unicode="&#x201a;" horiz-adv-x="135" 
 />
    <glyph glyph-name="quotereversed" unicode="&#x201b;" horiz-adv-x="135" 
 />
    <glyph glyph-name="quotedblleft" unicode="&#x201c;" 
d="M91 595q-12 -9 -17 -23q-21 -51 -34 -108q-4 -20 8 -38q11 -17 30 -22q19 -4 37 7q18 12 22 31q11 51 29 93q10 26 -5 48q-16 22 -43 21q-15 -1 -27 -9zM224 595q-13 -9 -18 -23q-20 -51 -33 -108q-5 -20 7 -38q12 -17 30 -22q20 -4 38 7q18 12 22 31q11 51 28 93
q11 26 -5 48q-15 22 -42 21q-14 -1 -27 -9z" />
    <glyph glyph-name="quotedblright" unicode="&#x201d;" 
d="M91 595q-12 -9 -17 -23q-21 -51 -34 -108q-4 -20 8 -38q11 -17 30 -22q19 -4 37 7q18 12 22 31q11 51 29 93q10 26 -5 48q-16 22 -43 21q-15 -1 -27 -9zM224 595q-13 -9 -18 -23q-20 -51 -33 -108q-5 -20 7 -38q12 -17 30 -22q20 -4 38 7q18 12 22 31q11 51 28 93
q11 26 -5 48q-15 22 -42 21q-14 -1 -27 -9z" />
    <glyph glyph-name="newsheqel" unicode="&#x20aa;" horiz-adv-x="661" 
d="M97 456q-46 -114 -60 -317q-1 -20 13 -37q14 -16 35 -18q19 -1 36 13q16 15 17 35q12 165 40 253l180 2q-16 -59 -24 -110q-3 -21 9 -39t34 -21q21 -2 38 11t19 34q13 89 40 157q10 25 -5 48q-15 21 -42 21l-266 -2q-9 3 -19 3q-33 -1 -45 -33zM539 456
q-43 -107 -56 -270q-34 0 -95 -1q-58 -1 -101 -2l12 91q3 22 -12 40q-16 17 -38 17q-18 0 -33 -13q-16 -14 -17 -32l-18 -147q-3 -21 11 -38q15 -17 37 -18h6q78 0 151 1q82 1 134 1q10 -2 21 1h4q33 -1 46 29q14 30 -8 55q12 155 50 249q10 26 -5 48q-16 23 -44 22
q-33 -1 -45 -33z" />
    </font>
</defs>
</svg>
